<svg xmlns="http://www.w3.org/2000/svg" version="1.1" width="280mm" height="110mm" viewBox = " 0 0 992.1268 389.7641" >
<!-- Front--> 
<g transform="translate(35.433099999999996, 35.433099999999996) " > 
<polygon style="stroke:#000000; fill:none; stroke-width:0.90000074" points="0, 0 30.118135, 0 30.118135, 10.62993 60.23627, 10.62993 60.23627, 0 81.49613, 0 81.49613, 10.62993 102.75599, 10.62993 102.75599, 0 124.01585, 0 124.01585, 10.62993 145.27571, 10.62993 145.27571, 0 166.53557, 0 166.53557, 10.62993 187.79542999999998, 10.62993 187.79542999999998, 0 209.05528999999999, 0 209.05528999999999, 10.62993 230.31515, 10.62993 230.31515, 0 251.57501, 0 251.57501, 10.62993 272.83487, 10.62993 272.83487, 0 294.09473, 0 294.09473, 10.62993 324.212865, 10.62993 324.212865, 0 354.331, 0 354.331, 21.25986 343.70107, 21.25986 343.70107, 42.51972 354.331, 42.51972 354.331, 63.779579999999996 343.70107, 63.779579999999996 343.70107, 85.03944 354.331, 85.03944 354.331, 106.2993 324.212865, 106.2993 324.212865, 95.66937 294.09473, 95.66937 294.09473, 106.2993 272.83487, 106.2993 272.83487, 95.66937 251.57501, 95.66937 251.57501, 106.2993 230.31515, 106.2993 230.31515, 95.66937 209.05528999999999, 95.66937 209.05528999999999, 106.2993 187.79542999999998, 106.2993 187.79542999999998, 95.66937 166.53557, 95.66937 166.53557, 106.2993 145.27571, 106.2993 145.27571, 95.66937 124.01585, 95.66937 124.01585, 106.2993 102.75599, 106.2993 102.75599, 95.66937 81.49613, 95.66937 81.49613, 106.2993 60.23627, 106.2993 60.23627, 95.66937 30.118135, 95.66937 30.118135, 106.2993 0, 106.2993 0, 85.03944 10.62993, 85.03944 10.62993, 63.779579999999996 0, 63.779579999999996 0, 42.51972 10.62993, 42.51972 10.62993, 21.25986 0, 21.25986 "/> 
</g>
<!-- Back--> 
<g transform="translate(389.7641, 35.433099999999996) " > 
<polygon style="stroke:#000000; fill:none; stroke-width:0.90000074" points="0, 0 30.118135, 0 30.118135, 10.62993 60.23627, 10.62993 60.23627, 0 81.49613, 0 81.49613, 10.62993 102.75599, 10.62993 102.75599, 0 124.01585, 0 124.01585, 10.62993 145.27571, 10.62993 145.27571, 0 166.53557, 0 166.53557, 10.62993 187.79542999999998, 10.62993 187.79542999999998, 0 209.05528999999999, 0 209.05528999999999, 10.62993 230.31515, 10.62993 230.31515, 0 251.57501, 0 251.57501, 10.62993 272.83487, 10.62993 272.83487, 0 294.09473, 0 294.09473, 10.62993 324.212865, 10.62993 324.212865, 0 354.331, 0 354.331, 21.25986 343.70107, 21.25986 343.70107, 42.51972 354.331, 42.51972 354.331, 63.779579999999996 343.70107, 63.779579999999996 343.70107, 85.03944 354.331, 85.03944 354.331, 106.2993 324.212865, 106.2993 324.212865, 95.66937 294.09473, 95.66937 294.09473, 106.2993 272.83487, 106.2993 272.83487, 95.66937 251.57501, 95.66937 251.57501, 106.2993 230.31515, 106.2993 230.31515, 95.66937 209.05528999999999, 95.66937 209.05528999999999, 106.2993 187.79542999999998, 106.2993 187.79542999999998, 95.66937 166.53557, 95.66937 166.53557, 106.2993 145.27571, 106.2993 145.27571, 95.66937 124.01585, 95.66937 124.01585, 106.2993 102.75599, 106.2993 102.75599, 95.66937 81.49613, 95.66937 81.49613, 106.2993 60.23627, 106.2993 60.23627, 95.66937 30.118135, 95.66937 30.118135, 106.2993 0, 106.2993 0, 85.03944 10.62993, 85.03944 10.62993, 63.779579999999996 0, 63.779579999999996 0, 42.51972 10.62993, 42.51972 10.62993, 21.25986 0, 21.25986 "/> 
</g>
<!-- Left--> 
<g transform="translate(744.0951, 35.433099999999996) " > 
<polygon style="stroke:#000000; fill:none; stroke-width:0.90000074" points="10.62993, 0 26.574825, 0 26.574825, 10.62993 53.14965, 10.62993 53.14965, 0 74.40951, 0 74.40951, 10.62993 95.66937, 10.62993 95.66937, 0 116.92922999999999, 0 116.92922999999999, 10.62993 138.18909, 10.62993 138.18909, 0 159.44895, 0 159.44895, 10.62993 186.023775, 10.62993 186.023775, 0 201.96867, 0 201.96867, 21.25986 212.5986, 21.25986 212.5986, 42.51972 201.96867, 42.51972 201.96867, 63.779579999999996 212.5986, 63.779579999999996 212.5986, 85.03944 201.96867, 85.03944 201.96867, 106.2993 186.023775, 106.2993 186.023775, 95.66937 159.44895, 95.66937 159.44895, 106.2993 138.18909, 106.2993 138.18909, 95.66937 116.92922999999999, 95.66937 116.92922999999999, 106.2993 95.66937, 106.2993 95.66937, 95.66937 74.40951, 95.66937 74.40951, 106.2993 53.14965, 106.2993 53.14965, 95.66937 26.574825, 95.66937 26.574825, 106.2993 10.62993, 106.2993 10.62993, 85.03944 0, 85.03944 0, 63.779579999999996 10.62993, 63.779579999999996 10.62993, 42.51972 0, 42.51972 0, 21.25986 10.62993, 21.25986 "/> 
</g>
<!-- Right--> 
<g transform="translate(744.0951, 141.73239999999998) " > 
<polygon style="stroke:#000000; fill:none; stroke-width:0.90000074" points="10.62993, 0 26.574825, 0 26.574825, 10.62993 53.14965, 10.62993 53.14965, 0 74.40951, 0 74.40951, 10.62993 95.66937, 10.62993 95.66937, 0 116.92922999999999, 0 116.92922999999999, 10.62993 138.18909, 10.62993 138.18909, 0 159.44895, 0 159.44895, 10.62993 186.023775, 10.62993 186.023775, 0 201.96867, 0 201.96867, 21.25986 212.5986, 21.25986 212.5986, 42.51972 201.96867, 42.51972 201.96867, 63.779579999999996 212.5986, 63.779579999999996 212.5986, 85.03944 201.96867, 85.03944 201.96867, 106.2993 186.023775, 106.2993 186.023775, 95.66937 159.44895, 95.66937 159.44895, 106.2993 138.18909, 106.2993 138.18909, 95.66937 116.92922999999999, 95.66937 116.92922999999999, 106.2993 95.66937, 106.2993 95.66937, 95.66937 74.40951, 95.66937 74.40951, 106.2993 53.14965, 106.2993 53.14965, 95.66937 26.574825, 95.66937 26.574825, 106.2993 10.62993, 106.2993 10.62993, 85.03944 0, 85.03944 0, 63.779579999999996 10.62993, 63.779579999999996 10.62993, 42.51972 0, 42.51972 0, 21.25986 10.62993, 21.25986 "/> 
</g>
<!-- Top--> 
<g transform="translate(35.433099999999996, 141.73239999999998) " > 
<polygon style="stroke:#000000; fill:none; stroke-width:0.90000074" points="10.62993, 10.62993 30.118135, 10.62993 30.118135, 0 60.23627, 0 60.23627, 10.62993 81.49613, 10.62993 81.49613, 0 102.75599, 0 102.75599, 10.62993 124.01585, 10.62993 124.01585, 0 145.27571, 0 145.27571, 10.62993 166.53557, 10.62993 166.53557, 0 187.79542999999998, 0 187.79542999999998, 10.62993 209.05528999999999, 10.62993 209.05528999999999, 0 230.31515, 0 230.31515, 10.62993 251.57501, 10.62993 251.57501, 0 272.83487, 0 272.83487, 10.62993 294.09473, 10.62993 294.09473, 0 324.212865, 0 324.212865, 10.62993 343.70107, 10.62993 343.70107, 26.574825 354.331, 26.574825 354.331, 53.14965 343.70107, 53.14965 343.70107, 74.40951 354.331, 74.40951 354.331, 95.66937 343.70107, 95.66937 343.70107, 116.92922999999999 354.331, 116.92922999999999 354.331, 138.18909 343.70107, 138.18909 343.70107, 159.44895 354.331, 159.44895 354.331, 186.023775 343.70107, 186.023775 343.70107, 201.96867 324.212865, 201.96867 324.212865, 212.5986 294.09473, 212.5986 294.09473, 201.96867 272.83487, 201.96867 272.83487, 212.5986 251.57501, 212.5986 251.57501, 201.96867 230.31515, 201.96867 230.31515, 212.5986 209.05528999999999, 212.5986 209.05528999999999, 201.96867 187.79542999999998, 201.96867 187.79542999999998, 212.5986 166.53557, 212.5986 166.53557, 201.96867 145.27571, 201.96867 145.27571, 212.5986 124.01585, 212.5986 124.01585, 201.96867 102.75599, 201.96867 102.75599, 212.5986 81.49613, 212.5986 81.49613, 201.96867 60.23627, 201.96867 60.23627, 212.5986 30.118135, 212.5986 30.118135, 201.96867 10.62993, 201.96867 10.62993, 186.023775 0, 186.023775 0, 159.44895 10.62993, 159.44895 10.62993, 138.18909 0, 138.18909 0, 116.92922999999999 10.62993, 116.92922999999999 10.62993, 95.66937 0, 95.66937 0, 74.40951 10.62993, 74.40951 10.62993, 53.14965 0, 53.14965 0, 26.574825 10.62993, 26.574825 "/> 
</g>
<!-- Bottom--> 
<g transform="translate(389.7641, 141.73239999999998) " > 
<polygon style="stroke:#000000; fill:none; stroke-width:0.90000074" points="10.62993, 10.62993 30.118135, 10.62993 30.118135, 0 60.23627, 0 60.23627, 10.62993 81.49613, 10.62993 81.49613, 0 102.75599, 0 102.75599, 10.62993 124.01585, 10.62993 124.01585, 0 145.27571, 0 145.27571, 10.62993 166.53557, 10.62993 166.53557, 0 187.79542999999998, 0 187.79542999999998, 10.62993 209.05528999999999, 10.62993 209.05528999999999, 0 230.31515, 0 230.31515, 10.62993 251.57501, 10.62993 251.57501, 0 272.83487, 0 272.83487, 10.62993 294.09473, 10.62993 294.09473, 0 324.212865, 0 324.212865, 10.62993 343.70107, 10.62993 343.70107, 26.574825 354.331, 26.574825 354.331, 53.14965 343.70107, 53.14965 343.70107, 74.40951 354.331, 74.40951 354.331, 95.66937 343.70107, 95.66937 343.70107, 116.92922999999999 354.331, 116.92922999999999 354.331, 138.18909 343.70107, 138.18909 343.70107, 159.44895 354.331, 159.44895 354.331, 186.023775 343.70107, 186.023775 343.70107, 201.96867 324.212865, 201.96867 324.212865, 212.5986 294.09473, 212.5986 294.09473, 201.96867 272.83487, 201.96867 272.83487, 212.5986 251.57501, 212.5986 251.57501, 201.96867 230.31515, 201.96867 230.31515, 212.5986 209.05528999999999, 212.5986 209.05528999999999, 201.96867 187.79542999999998, 201.96867 187.79542999999998, 212.5986 166.53557, 212.5986 166.53557, 201.96867 145.27571, 201.96867 145.27571, 212.5986 124.01585, 212.5986 124.01585, 201.96867 102.75599, 201.96867 102.75599, 212.5986 81.49613, 212.5986 81.49613, 201.96867 60.23627, 201.96867 60.23627, 212.5986 30.118135, 212.5986 30.118135, 201.96867 10.62993, 201.96867 10.62993, 186.023775 0, 186.023775 0, 159.44895 10.62993, 159.44895 10.62993, 138.18909 0, 138.18909 0, 116.92922999999999 10.62993, 116.92922999999999 10.62993, 95.66937 0, 95.66937 0, 74.40951 10.62993, 74.40951 10.62993, 53.14965 0, 53.14965 0, 26.574825 10.62993, 26.574825 "/> 
</g></svg>