G75*
%MOIN*%
%OFA0B0*%
%FSLAX24Y24*%
%IPPOS*%
%LPD*%
%AMOC8*
5,1,8,0,0,1.08239X$1,22.5*
%
%ADD10C,0.0000*%
%ADD11C,0.0080*%
%ADD12C,0.0100*%
%ADD13C,0.0436*%
%ADD14OC8,0.0850*%
%ADD15R,0.0591X0.0394*%
%ADD16C,0.0520*%
%ADD17C,0.0740*%
%ADD18C,0.0690*%
%ADD19C,0.0356*%
%ADD20OC8,0.0356*%
D10*
X002665Y001484D02*
X002667Y001532D01*
X002673Y001580D01*
X002683Y001627D01*
X002696Y001673D01*
X002714Y001718D01*
X002734Y001762D01*
X002759Y001804D01*
X002787Y001843D01*
X002817Y001880D01*
X002851Y001914D01*
X002888Y001946D01*
X002926Y001975D01*
X002967Y002000D01*
X003010Y002022D01*
X003055Y002040D01*
X003101Y002054D01*
X003148Y002065D01*
X003196Y002072D01*
X003244Y002075D01*
X003292Y002074D01*
X003340Y002069D01*
X003388Y002060D01*
X003434Y002048D01*
X003479Y002031D01*
X003523Y002011D01*
X003565Y001988D01*
X003605Y001961D01*
X003643Y001931D01*
X003678Y001898D01*
X003710Y001862D01*
X003740Y001824D01*
X003766Y001783D01*
X003788Y001740D01*
X003808Y001696D01*
X003823Y001651D01*
X003835Y001604D01*
X003843Y001556D01*
X003847Y001508D01*
X003847Y001460D01*
X003843Y001412D01*
X003835Y001364D01*
X003823Y001317D01*
X003808Y001272D01*
X003788Y001228D01*
X003766Y001185D01*
X003740Y001144D01*
X003710Y001106D01*
X003678Y001070D01*
X003643Y001037D01*
X003605Y001007D01*
X003565Y000980D01*
X003523Y000957D01*
X003479Y000937D01*
X003434Y000920D01*
X003388Y000908D01*
X003340Y000899D01*
X003292Y000894D01*
X003244Y000893D01*
X003196Y000896D01*
X003148Y000903D01*
X003101Y000914D01*
X003055Y000928D01*
X003010Y000946D01*
X002967Y000968D01*
X002926Y000993D01*
X002888Y001022D01*
X002851Y001054D01*
X002817Y001088D01*
X002787Y001125D01*
X002759Y001164D01*
X002734Y001206D01*
X002714Y001250D01*
X002696Y001295D01*
X002683Y001341D01*
X002673Y001388D01*
X002667Y001436D01*
X002665Y001484D01*
X009752Y005421D02*
X009754Y005469D01*
X009760Y005517D01*
X009770Y005564D01*
X009783Y005610D01*
X009801Y005655D01*
X009821Y005699D01*
X009846Y005741D01*
X009874Y005780D01*
X009904Y005817D01*
X009938Y005851D01*
X009975Y005883D01*
X010013Y005912D01*
X010054Y005937D01*
X010097Y005959D01*
X010142Y005977D01*
X010188Y005991D01*
X010235Y006002D01*
X010283Y006009D01*
X010331Y006012D01*
X010379Y006011D01*
X010427Y006006D01*
X010475Y005997D01*
X010521Y005985D01*
X010566Y005968D01*
X010610Y005948D01*
X010652Y005925D01*
X010692Y005898D01*
X010730Y005868D01*
X010765Y005835D01*
X010797Y005799D01*
X010827Y005761D01*
X010853Y005720D01*
X010875Y005677D01*
X010895Y005633D01*
X010910Y005588D01*
X010922Y005541D01*
X010930Y005493D01*
X010934Y005445D01*
X010934Y005397D01*
X010930Y005349D01*
X010922Y005301D01*
X010910Y005254D01*
X010895Y005209D01*
X010875Y005165D01*
X010853Y005122D01*
X010827Y005081D01*
X010797Y005043D01*
X010765Y005007D01*
X010730Y004974D01*
X010692Y004944D01*
X010652Y004917D01*
X010610Y004894D01*
X010566Y004874D01*
X010521Y004857D01*
X010475Y004845D01*
X010427Y004836D01*
X010379Y004831D01*
X010331Y004830D01*
X010283Y004833D01*
X010235Y004840D01*
X010188Y004851D01*
X010142Y004865D01*
X010097Y004883D01*
X010054Y004905D01*
X010013Y004930D01*
X009975Y004959D01*
X009938Y004991D01*
X009904Y005025D01*
X009874Y005062D01*
X009846Y005101D01*
X009821Y005143D01*
X009801Y005187D01*
X009783Y005232D01*
X009770Y005278D01*
X009760Y005325D01*
X009754Y005373D01*
X009752Y005421D01*
X004830Y010343D02*
X004832Y010391D01*
X004838Y010439D01*
X004848Y010486D01*
X004861Y010532D01*
X004879Y010577D01*
X004899Y010621D01*
X004924Y010663D01*
X004952Y010702D01*
X004982Y010739D01*
X005016Y010773D01*
X005053Y010805D01*
X005091Y010834D01*
X005132Y010859D01*
X005175Y010881D01*
X005220Y010899D01*
X005266Y010913D01*
X005313Y010924D01*
X005361Y010931D01*
X005409Y010934D01*
X005457Y010933D01*
X005505Y010928D01*
X005553Y010919D01*
X005599Y010907D01*
X005644Y010890D01*
X005688Y010870D01*
X005730Y010847D01*
X005770Y010820D01*
X005808Y010790D01*
X005843Y010757D01*
X005875Y010721D01*
X005905Y010683D01*
X005931Y010642D01*
X005953Y010599D01*
X005973Y010555D01*
X005988Y010510D01*
X006000Y010463D01*
X006008Y010415D01*
X006012Y010367D01*
X006012Y010319D01*
X006008Y010271D01*
X006000Y010223D01*
X005988Y010176D01*
X005973Y010131D01*
X005953Y010087D01*
X005931Y010044D01*
X005905Y010003D01*
X005875Y009965D01*
X005843Y009929D01*
X005808Y009896D01*
X005770Y009866D01*
X005730Y009839D01*
X005688Y009816D01*
X005644Y009796D01*
X005599Y009779D01*
X005553Y009767D01*
X005505Y009758D01*
X005457Y009753D01*
X005409Y009752D01*
X005361Y009755D01*
X005313Y009762D01*
X005266Y009773D01*
X005220Y009787D01*
X005175Y009805D01*
X005132Y009827D01*
X005091Y009852D01*
X005053Y009881D01*
X005016Y009913D01*
X004982Y009947D01*
X004952Y009984D01*
X004924Y010023D01*
X004899Y010065D01*
X004879Y010109D01*
X004861Y010154D01*
X004848Y010200D01*
X004838Y010247D01*
X004832Y010295D01*
X004830Y010343D01*
X009752Y015264D02*
X009754Y015312D01*
X009760Y015360D01*
X009770Y015407D01*
X009783Y015453D01*
X009801Y015498D01*
X009821Y015542D01*
X009846Y015584D01*
X009874Y015623D01*
X009904Y015660D01*
X009938Y015694D01*
X009975Y015726D01*
X010013Y015755D01*
X010054Y015780D01*
X010097Y015802D01*
X010142Y015820D01*
X010188Y015834D01*
X010235Y015845D01*
X010283Y015852D01*
X010331Y015855D01*
X010379Y015854D01*
X010427Y015849D01*
X010475Y015840D01*
X010521Y015828D01*
X010566Y015811D01*
X010610Y015791D01*
X010652Y015768D01*
X010692Y015741D01*
X010730Y015711D01*
X010765Y015678D01*
X010797Y015642D01*
X010827Y015604D01*
X010853Y015563D01*
X010875Y015520D01*
X010895Y015476D01*
X010910Y015431D01*
X010922Y015384D01*
X010930Y015336D01*
X010934Y015288D01*
X010934Y015240D01*
X010930Y015192D01*
X010922Y015144D01*
X010910Y015097D01*
X010895Y015052D01*
X010875Y015008D01*
X010853Y014965D01*
X010827Y014924D01*
X010797Y014886D01*
X010765Y014850D01*
X010730Y014817D01*
X010692Y014787D01*
X010652Y014760D01*
X010610Y014737D01*
X010566Y014717D01*
X010521Y014700D01*
X010475Y014688D01*
X010427Y014679D01*
X010379Y014674D01*
X010331Y014673D01*
X010283Y014676D01*
X010235Y014683D01*
X010188Y014694D01*
X010142Y014708D01*
X010097Y014726D01*
X010054Y014748D01*
X010013Y014773D01*
X009975Y014802D01*
X009938Y014834D01*
X009904Y014868D01*
X009874Y014905D01*
X009846Y014944D01*
X009821Y014986D01*
X009801Y015030D01*
X009783Y015075D01*
X009770Y015121D01*
X009760Y015168D01*
X009754Y015216D01*
X009752Y015264D01*
X000893Y017035D02*
X000895Y017083D01*
X000901Y017131D01*
X000911Y017178D01*
X000924Y017224D01*
X000942Y017269D01*
X000962Y017313D01*
X000987Y017355D01*
X001015Y017394D01*
X001045Y017431D01*
X001079Y017465D01*
X001116Y017497D01*
X001154Y017526D01*
X001195Y017551D01*
X001238Y017573D01*
X001283Y017591D01*
X001329Y017605D01*
X001376Y017616D01*
X001424Y017623D01*
X001472Y017626D01*
X001520Y017625D01*
X001568Y017620D01*
X001616Y017611D01*
X001662Y017599D01*
X001707Y017582D01*
X001751Y017562D01*
X001793Y017539D01*
X001833Y017512D01*
X001871Y017482D01*
X001906Y017449D01*
X001938Y017413D01*
X001968Y017375D01*
X001994Y017334D01*
X002016Y017291D01*
X002036Y017247D01*
X002051Y017202D01*
X002063Y017155D01*
X002071Y017107D01*
X002075Y017059D01*
X002075Y017011D01*
X002071Y016963D01*
X002063Y016915D01*
X002051Y016868D01*
X002036Y016823D01*
X002016Y016779D01*
X001994Y016736D01*
X001968Y016695D01*
X001938Y016657D01*
X001906Y016621D01*
X001871Y016588D01*
X001833Y016558D01*
X001793Y016531D01*
X001751Y016508D01*
X001707Y016488D01*
X001662Y016471D01*
X001616Y016459D01*
X001568Y016450D01*
X001520Y016445D01*
X001472Y016444D01*
X001424Y016447D01*
X001376Y016454D01*
X001329Y016465D01*
X001283Y016479D01*
X001238Y016497D01*
X001195Y016519D01*
X001154Y016544D01*
X001116Y016573D01*
X001079Y016605D01*
X001045Y016639D01*
X001015Y016676D01*
X000987Y016715D01*
X000962Y016757D01*
X000942Y016801D01*
X000924Y016846D01*
X000911Y016892D01*
X000901Y016939D01*
X000895Y016987D01*
X000893Y017035D01*
X014673Y010343D02*
X014675Y010391D01*
X014681Y010439D01*
X014691Y010486D01*
X014704Y010532D01*
X014722Y010577D01*
X014742Y010621D01*
X014767Y010663D01*
X014795Y010702D01*
X014825Y010739D01*
X014859Y010773D01*
X014896Y010805D01*
X014934Y010834D01*
X014975Y010859D01*
X015018Y010881D01*
X015063Y010899D01*
X015109Y010913D01*
X015156Y010924D01*
X015204Y010931D01*
X015252Y010934D01*
X015300Y010933D01*
X015348Y010928D01*
X015396Y010919D01*
X015442Y010907D01*
X015487Y010890D01*
X015531Y010870D01*
X015573Y010847D01*
X015613Y010820D01*
X015651Y010790D01*
X015686Y010757D01*
X015718Y010721D01*
X015748Y010683D01*
X015774Y010642D01*
X015796Y010599D01*
X015816Y010555D01*
X015831Y010510D01*
X015843Y010463D01*
X015851Y010415D01*
X015855Y010367D01*
X015855Y010319D01*
X015851Y010271D01*
X015843Y010223D01*
X015831Y010176D01*
X015816Y010131D01*
X015796Y010087D01*
X015774Y010044D01*
X015748Y010003D01*
X015718Y009965D01*
X015686Y009929D01*
X015651Y009896D01*
X015613Y009866D01*
X015573Y009839D01*
X015531Y009816D01*
X015487Y009796D01*
X015442Y009779D01*
X015396Y009767D01*
X015348Y009758D01*
X015300Y009753D01*
X015252Y009752D01*
X015204Y009755D01*
X015156Y009762D01*
X015109Y009773D01*
X015063Y009787D01*
X015018Y009805D01*
X014975Y009827D01*
X014934Y009852D01*
X014896Y009881D01*
X014859Y009913D01*
X014825Y009947D01*
X014795Y009984D01*
X014767Y010023D01*
X014742Y010065D01*
X014722Y010109D01*
X014704Y010154D01*
X014691Y010200D01*
X014681Y010247D01*
X014675Y010295D01*
X014673Y010343D01*
X021662Y017429D02*
X021664Y017473D01*
X021670Y017517D01*
X021680Y017560D01*
X021693Y017602D01*
X021711Y017642D01*
X021732Y017681D01*
X021756Y017718D01*
X021783Y017753D01*
X021814Y017785D01*
X021847Y017814D01*
X021883Y017840D01*
X021921Y017862D01*
X021961Y017881D01*
X022002Y017897D01*
X022045Y017909D01*
X022088Y017917D01*
X022132Y017921D01*
X022176Y017921D01*
X022220Y017917D01*
X022263Y017909D01*
X022306Y017897D01*
X022347Y017881D01*
X022387Y017862D01*
X022425Y017840D01*
X022461Y017814D01*
X022494Y017785D01*
X022525Y017753D01*
X022552Y017718D01*
X022576Y017681D01*
X022597Y017642D01*
X022615Y017602D01*
X022628Y017560D01*
X022638Y017517D01*
X022644Y017473D01*
X022646Y017429D01*
X022644Y017385D01*
X022638Y017341D01*
X022628Y017298D01*
X022615Y017256D01*
X022597Y017216D01*
X022576Y017177D01*
X022552Y017140D01*
X022525Y017105D01*
X022494Y017073D01*
X022461Y017044D01*
X022425Y017018D01*
X022387Y016996D01*
X022347Y016977D01*
X022306Y016961D01*
X022263Y016949D01*
X022220Y016941D01*
X022176Y016937D01*
X022132Y016937D01*
X022088Y016941D01*
X022045Y016949D01*
X022002Y016961D01*
X021961Y016977D01*
X021921Y016996D01*
X021883Y017018D01*
X021847Y017044D01*
X021814Y017073D01*
X021783Y017105D01*
X021756Y017140D01*
X021732Y017177D01*
X021711Y017216D01*
X021693Y017256D01*
X021680Y017298D01*
X021670Y017341D01*
X021664Y017385D01*
X021662Y017429D01*
X018610Y019201D02*
X018612Y019249D01*
X018618Y019297D01*
X018628Y019344D01*
X018641Y019390D01*
X018659Y019435D01*
X018679Y019479D01*
X018704Y019521D01*
X018732Y019560D01*
X018762Y019597D01*
X018796Y019631D01*
X018833Y019663D01*
X018871Y019692D01*
X018912Y019717D01*
X018955Y019739D01*
X019000Y019757D01*
X019046Y019771D01*
X019093Y019782D01*
X019141Y019789D01*
X019189Y019792D01*
X019237Y019791D01*
X019285Y019786D01*
X019333Y019777D01*
X019379Y019765D01*
X019424Y019748D01*
X019468Y019728D01*
X019510Y019705D01*
X019550Y019678D01*
X019588Y019648D01*
X019623Y019615D01*
X019655Y019579D01*
X019685Y019541D01*
X019711Y019500D01*
X019733Y019457D01*
X019753Y019413D01*
X019768Y019368D01*
X019780Y019321D01*
X019788Y019273D01*
X019792Y019225D01*
X019792Y019177D01*
X019788Y019129D01*
X019780Y019081D01*
X019768Y019034D01*
X019753Y018989D01*
X019733Y018945D01*
X019711Y018902D01*
X019685Y018861D01*
X019655Y018823D01*
X019623Y018787D01*
X019588Y018754D01*
X019550Y018724D01*
X019510Y018697D01*
X019468Y018674D01*
X019424Y018654D01*
X019379Y018637D01*
X019333Y018625D01*
X019285Y018616D01*
X019237Y018611D01*
X019189Y018610D01*
X019141Y018613D01*
X019093Y018620D01*
X019046Y018631D01*
X019000Y018645D01*
X018955Y018663D01*
X018912Y018685D01*
X018871Y018710D01*
X018833Y018739D01*
X018796Y018771D01*
X018762Y018805D01*
X018732Y018842D01*
X018704Y018881D01*
X018679Y018923D01*
X018659Y018967D01*
X018641Y019012D01*
X018628Y019058D01*
X018618Y019105D01*
X018612Y019153D01*
X018610Y019201D01*
X034654Y017232D02*
X034656Y017276D01*
X034662Y017320D01*
X034672Y017363D01*
X034685Y017405D01*
X034703Y017445D01*
X034724Y017484D01*
X034748Y017521D01*
X034775Y017556D01*
X034806Y017588D01*
X034839Y017617D01*
X034875Y017643D01*
X034913Y017665D01*
X034953Y017684D01*
X034994Y017700D01*
X035037Y017712D01*
X035080Y017720D01*
X035124Y017724D01*
X035168Y017724D01*
X035212Y017720D01*
X035255Y017712D01*
X035298Y017700D01*
X035339Y017684D01*
X035379Y017665D01*
X035417Y017643D01*
X035453Y017617D01*
X035486Y017588D01*
X035517Y017556D01*
X035544Y017521D01*
X035568Y017484D01*
X035589Y017445D01*
X035607Y017405D01*
X035620Y017363D01*
X035630Y017320D01*
X035636Y017276D01*
X035638Y017232D01*
X035636Y017188D01*
X035630Y017144D01*
X035620Y017101D01*
X035607Y017059D01*
X035589Y017019D01*
X035568Y016980D01*
X035544Y016943D01*
X035517Y016908D01*
X035486Y016876D01*
X035453Y016847D01*
X035417Y016821D01*
X035379Y016799D01*
X035339Y016780D01*
X035298Y016764D01*
X035255Y016752D01*
X035212Y016744D01*
X035168Y016740D01*
X035124Y016740D01*
X035080Y016744D01*
X035037Y016752D01*
X034994Y016764D01*
X034953Y016780D01*
X034913Y016799D01*
X034875Y016821D01*
X034839Y016847D01*
X034806Y016876D01*
X034775Y016908D01*
X034748Y016943D01*
X034724Y016980D01*
X034703Y017019D01*
X034685Y017059D01*
X034672Y017101D01*
X034662Y017144D01*
X034656Y017188D01*
X034654Y017232D01*
X035835Y003256D02*
X035837Y003300D01*
X035843Y003344D01*
X035853Y003387D01*
X035866Y003429D01*
X035884Y003469D01*
X035905Y003508D01*
X035929Y003545D01*
X035956Y003580D01*
X035987Y003612D01*
X036020Y003641D01*
X036056Y003667D01*
X036094Y003689D01*
X036134Y003708D01*
X036175Y003724D01*
X036218Y003736D01*
X036261Y003744D01*
X036305Y003748D01*
X036349Y003748D01*
X036393Y003744D01*
X036436Y003736D01*
X036479Y003724D01*
X036520Y003708D01*
X036560Y003689D01*
X036598Y003667D01*
X036634Y003641D01*
X036667Y003612D01*
X036698Y003580D01*
X036725Y003545D01*
X036749Y003508D01*
X036770Y003469D01*
X036788Y003429D01*
X036801Y003387D01*
X036811Y003344D01*
X036817Y003300D01*
X036819Y003256D01*
X036817Y003212D01*
X036811Y003168D01*
X036801Y003125D01*
X036788Y003083D01*
X036770Y003043D01*
X036749Y003004D01*
X036725Y002967D01*
X036698Y002932D01*
X036667Y002900D01*
X036634Y002871D01*
X036598Y002845D01*
X036560Y002823D01*
X036520Y002804D01*
X036479Y002788D01*
X036436Y002776D01*
X036393Y002768D01*
X036349Y002764D01*
X036305Y002764D01*
X036261Y002768D01*
X036218Y002776D01*
X036175Y002788D01*
X036134Y002804D01*
X036094Y002823D01*
X036056Y002845D01*
X036020Y002871D01*
X035987Y002900D01*
X035956Y002932D01*
X035929Y002967D01*
X035905Y003004D01*
X035884Y003043D01*
X035866Y003083D01*
X035853Y003125D01*
X035843Y003168D01*
X035837Y003212D01*
X035835Y003256D01*
X020480Y001484D02*
X020482Y001528D01*
X020488Y001572D01*
X020498Y001615D01*
X020511Y001657D01*
X020529Y001697D01*
X020550Y001736D01*
X020574Y001773D01*
X020601Y001808D01*
X020632Y001840D01*
X020665Y001869D01*
X020701Y001895D01*
X020739Y001917D01*
X020779Y001936D01*
X020820Y001952D01*
X020863Y001964D01*
X020906Y001972D01*
X020950Y001976D01*
X020994Y001976D01*
X021038Y001972D01*
X021081Y001964D01*
X021124Y001952D01*
X021165Y001936D01*
X021205Y001917D01*
X021243Y001895D01*
X021279Y001869D01*
X021312Y001840D01*
X021343Y001808D01*
X021370Y001773D01*
X021394Y001736D01*
X021415Y001697D01*
X021433Y001657D01*
X021446Y001615D01*
X021456Y001572D01*
X021462Y001528D01*
X021464Y001484D01*
X021462Y001440D01*
X021456Y001396D01*
X021446Y001353D01*
X021433Y001311D01*
X021415Y001271D01*
X021394Y001232D01*
X021370Y001195D01*
X021343Y001160D01*
X021312Y001128D01*
X021279Y001099D01*
X021243Y001073D01*
X021205Y001051D01*
X021165Y001032D01*
X021124Y001016D01*
X021081Y001004D01*
X021038Y000996D01*
X020994Y000992D01*
X020950Y000992D01*
X020906Y000996D01*
X020863Y001004D01*
X020820Y001016D01*
X020779Y001032D01*
X020739Y001051D01*
X020701Y001073D01*
X020665Y001099D01*
X020632Y001128D01*
X020601Y001160D01*
X020574Y001195D01*
X020550Y001232D01*
X020529Y001271D01*
X020511Y001311D01*
X020498Y001353D01*
X020488Y001396D01*
X020482Y001440D01*
X020480Y001484D01*
X018610Y001484D02*
X018612Y001532D01*
X018618Y001580D01*
X018628Y001627D01*
X018641Y001673D01*
X018659Y001718D01*
X018679Y001762D01*
X018704Y001804D01*
X018732Y001843D01*
X018762Y001880D01*
X018796Y001914D01*
X018833Y001946D01*
X018871Y001975D01*
X018912Y002000D01*
X018955Y002022D01*
X019000Y002040D01*
X019046Y002054D01*
X019093Y002065D01*
X019141Y002072D01*
X019189Y002075D01*
X019237Y002074D01*
X019285Y002069D01*
X019333Y002060D01*
X019379Y002048D01*
X019424Y002031D01*
X019468Y002011D01*
X019510Y001988D01*
X019550Y001961D01*
X019588Y001931D01*
X019623Y001898D01*
X019655Y001862D01*
X019685Y001824D01*
X019711Y001783D01*
X019733Y001740D01*
X019753Y001696D01*
X019768Y001651D01*
X019780Y001604D01*
X019788Y001556D01*
X019792Y001508D01*
X019792Y001460D01*
X019788Y001412D01*
X019780Y001364D01*
X019768Y001317D01*
X019753Y001272D01*
X019733Y001228D01*
X019711Y001185D01*
X019685Y001144D01*
X019655Y001106D01*
X019623Y001070D01*
X019588Y001037D01*
X019550Y001007D01*
X019510Y000980D01*
X019468Y000957D01*
X019424Y000937D01*
X019379Y000920D01*
X019333Y000908D01*
X019285Y000899D01*
X019237Y000894D01*
X019189Y000893D01*
X019141Y000896D01*
X019093Y000903D01*
X019046Y000914D01*
X019000Y000928D01*
X018955Y000946D01*
X018912Y000968D01*
X018871Y000993D01*
X018833Y001022D01*
X018796Y001054D01*
X018762Y001088D01*
X018732Y001125D01*
X018704Y001164D01*
X018679Y001206D01*
X018659Y001250D01*
X018641Y001295D01*
X018628Y001341D01*
X018618Y001388D01*
X018612Y001436D01*
X018610Y001484D01*
D11*
X002469Y000500D02*
X002469Y002862D01*
X000500Y002862D01*
X000500Y017823D01*
X002469Y017823D01*
X002469Y020185D01*
X020185Y020185D01*
X020185Y018217D01*
X035933Y018217D01*
X035933Y016248D01*
X037114Y016248D01*
X037114Y002469D01*
X035933Y002469D01*
X035933Y000500D01*
X002469Y000500D01*
X005900Y004200D02*
X005900Y004306D01*
X006386Y004791D01*
X006235Y005900D02*
X005900Y005900D01*
X006235Y005900D02*
X006386Y006051D01*
X004800Y006700D02*
X004457Y006357D01*
X004457Y006051D01*
X004100Y005200D02*
X004457Y004843D01*
X004457Y004791D01*
X002682Y006657D02*
X002639Y006700D01*
X001600Y006700D01*
X001500Y006800D01*
X001500Y009000D01*
X001500Y015800D01*
X002150Y016450D01*
X002621Y016450D01*
X002621Y017221D01*
X003900Y018500D01*
X007900Y018500D01*
X008700Y018700D02*
X008900Y018900D01*
X016900Y018900D01*
X017100Y018700D01*
X017100Y018300D01*
X015900Y016500D02*
X016228Y016172D01*
X016228Y015894D01*
X014700Y016294D02*
X014299Y015894D01*
X014700Y016294D02*
X014700Y016400D01*
X012524Y016450D02*
X012500Y016474D01*
X012500Y018400D01*
X012400Y018500D01*
X009200Y018500D01*
X008700Y018700D02*
X008700Y013900D01*
X008100Y013300D01*
X006100Y014100D02*
X006100Y014348D01*
X006386Y014634D01*
X006700Y015500D02*
X006700Y015580D01*
X006386Y015894D01*
X004900Y016600D02*
X004457Y016157D01*
X004457Y015894D01*
X004457Y014634D02*
X004666Y014634D01*
X004700Y014600D01*
X004700Y014000D01*
X011500Y015400D02*
X011500Y012500D01*
X012000Y012000D01*
X018873Y012000D01*
X019400Y012400D01*
X020900Y012400D02*
X021500Y012400D01*
X021600Y012500D01*
X021600Y013900D01*
X021900Y014200D01*
X025600Y014200D01*
X025600Y013100D01*
X025500Y013000D01*
X024500Y013000D02*
X024400Y013100D01*
X024400Y013800D01*
X024300Y013900D01*
X022000Y013900D01*
X021800Y013700D01*
X021800Y011500D01*
X021700Y011400D01*
X020900Y011400D01*
X021700Y010400D02*
X022000Y010700D01*
X022000Y013500D01*
X022200Y013700D01*
X023400Y013700D01*
X023500Y013600D01*
X023500Y013000D01*
X022500Y013000D02*
X022400Y012900D01*
X022400Y009500D01*
X022300Y009400D01*
X020900Y009400D01*
X019400Y009400D02*
X018973Y009300D01*
X003700Y009300D01*
X002600Y008600D02*
X002200Y008200D01*
X002200Y008000D01*
X002600Y008600D02*
X012100Y008600D01*
X012500Y009000D02*
X012700Y008800D01*
X018800Y008800D01*
X019200Y008400D01*
X019400Y008400D01*
X020900Y007400D02*
X020900Y006300D01*
X031400Y006300D01*
X032100Y007000D01*
X032100Y008200D01*
X032925Y008200D01*
X034125Y009400D01*
X034125Y010500D01*
X033125Y010500D02*
X033125Y009400D01*
X032125Y009400D02*
X032125Y010500D01*
X031125Y010500D02*
X031125Y009400D01*
X030125Y009400D02*
X030125Y010500D01*
X029125Y010500D02*
X029125Y009400D01*
X028125Y009400D02*
X028125Y010500D01*
X027125Y010500D02*
X027125Y009400D01*
X026125Y009400D02*
X026125Y010500D01*
X026100Y010525D01*
X026100Y011200D01*
X026300Y011400D01*
X030400Y011400D01*
X030500Y011500D01*
X030500Y013000D01*
X029500Y013000D02*
X029400Y013100D01*
X029400Y015300D01*
X022000Y015300D01*
X021900Y015400D01*
X021900Y016400D01*
X020900Y016400D01*
X020900Y015400D02*
X021200Y015100D01*
X028400Y015100D01*
X028500Y015000D01*
X028500Y013000D01*
X027500Y013000D02*
X027500Y014900D01*
X021500Y014900D01*
X021100Y014400D01*
X020900Y014400D01*
X021500Y014400D02*
X021500Y014100D01*
X020900Y013500D01*
X020900Y013400D01*
X021500Y014400D02*
X021700Y014600D01*
X026400Y014600D01*
X026500Y014500D01*
X026500Y013000D01*
X025125Y010500D02*
X025125Y009400D01*
X024125Y009400D02*
X024125Y010500D01*
X023125Y010500D02*
X023125Y009400D01*
X021700Y010400D02*
X020900Y010400D01*
X019400Y010400D02*
X018473Y009600D01*
X012000Y009600D01*
X012500Y009000D02*
X001500Y009000D01*
X008500Y008100D02*
X008500Y006500D01*
X008700Y006300D01*
X012500Y006632D02*
X012524Y006607D01*
X012500Y006632D02*
X012500Y009000D01*
X015700Y006700D02*
X015700Y006580D01*
X016228Y006051D01*
X014800Y005500D02*
X014299Y006001D01*
X014299Y006051D01*
X014299Y004791D02*
X014600Y004491D01*
X014900Y004200D01*
X015800Y004200D02*
X015800Y004363D01*
X016228Y004791D01*
X018500Y005400D02*
X018800Y005100D01*
X019400Y005100D01*
X018500Y005400D02*
X018500Y007100D01*
X020900Y006300D02*
X020900Y006100D01*
X020900Y004100D02*
X021900Y003100D01*
X027800Y003100D01*
X028125Y002775D01*
X028125Y002400D01*
X028125Y001200D01*
X027125Y001200D02*
X027125Y002400D01*
X026125Y002400D02*
X026125Y001200D01*
X025125Y001200D02*
X025125Y002400D01*
X024125Y002400D02*
X024125Y001200D01*
X023125Y001200D02*
X023125Y002400D01*
X029125Y002400D02*
X029125Y001200D01*
X030125Y001200D02*
X030125Y002400D01*
X031125Y002400D02*
X031125Y001200D01*
X032125Y001200D02*
X032125Y002400D01*
X033125Y002400D02*
X033125Y001200D01*
X034125Y001200D02*
X034125Y002400D01*
X036500Y006000D02*
X030900Y006000D01*
X036100Y008200D02*
X036700Y008200D01*
X036700Y006100D01*
X036500Y006000D01*
X036700Y008200D02*
X036700Y012900D01*
X033500Y016000D01*
X033500Y013000D02*
X034500Y013000D01*
X035500Y013000D01*
X016228Y014634D02*
X015800Y014206D01*
X015800Y014000D01*
X014500Y014200D02*
X014299Y014401D01*
X014299Y014634D01*
D12*
X013667Y014445D02*
X012880Y014075D01*
X012856Y013591D02*
X013604Y014031D01*
X014037Y013937D02*
X013309Y013327D01*
X013635Y012835D02*
X014159Y013543D01*
X014561Y013602D02*
X014171Y012780D01*
X014446Y012476D02*
X014738Y013315D01*
X015100Y013465D02*
X014966Y012571D01*
X015332Y012335D02*
X015360Y013213D01*
X015635Y013508D02*
X015813Y012602D01*
X016265Y012583D02*
X015974Y013343D01*
X016194Y013728D02*
X016675Y012906D01*
X017033Y012980D02*
X016572Y013665D01*
X016624Y014106D02*
X017218Y013484D01*
X017675Y013665D02*
X016994Y014169D01*
X016939Y014634D02*
X017750Y014232D01*
X018088Y014547D02*
X017234Y014823D01*
X017057Y015094D02*
X017950Y015031D01*
X018151Y015358D02*
X017285Y015370D01*
X016982Y015602D02*
X017927Y015728D01*
X018045Y016146D02*
X017171Y015980D01*
X016813Y016114D02*
X017687Y016504D01*
X017667Y016886D02*
X016876Y016465D01*
X016498Y016547D02*
X017218Y017114D01*
X017025Y017591D02*
X016415Y016894D01*
X016025Y016874D02*
X016561Y017630D01*
X016163Y018031D02*
X015836Y017240D01*
X015478Y017083D02*
X015679Y017937D01*
X015246Y018201D02*
X015246Y017378D01*
X014726Y017303D02*
X014395Y018063D01*
X014124Y017736D02*
X014561Y016957D01*
X014226Y016980D02*
X013667Y017705D01*
X013498Y017327D02*
X014100Y016661D01*
X013671Y016642D02*
X013080Y017232D01*
X012974Y016705D02*
X013730Y016201D01*
X013364Y016051D02*
X012553Y016461D01*
X012572Y015949D02*
X013490Y015657D01*
X013206Y015409D02*
X012301Y015465D01*
X012584Y014969D02*
X013490Y015024D01*
X013320Y014685D02*
X012427Y014484D01*
X012293Y015264D02*
X012295Y015372D01*
X012301Y015481D01*
X012311Y015589D01*
X012325Y015696D01*
X012343Y015803D01*
X012364Y015910D01*
X012390Y016015D01*
X012420Y016120D01*
X012453Y016223D01*
X012490Y016325D01*
X012531Y016425D01*
X012575Y016524D01*
X012624Y016622D01*
X012675Y016717D01*
X012730Y016810D01*
X012789Y016902D01*
X012851Y016991D01*
X012916Y017078D01*
X012984Y017162D01*
X013055Y017244D01*
X013129Y017323D01*
X013206Y017399D01*
X013286Y017473D01*
X013369Y017543D01*
X013454Y017611D01*
X013541Y017675D01*
X013631Y017736D01*
X013723Y017794D01*
X013817Y017848D01*
X013913Y017899D01*
X014010Y017946D01*
X014110Y017990D01*
X014211Y018030D01*
X014313Y018066D01*
X014416Y018098D01*
X014521Y018127D01*
X014627Y018151D01*
X014733Y018172D01*
X014840Y018189D01*
X014948Y018202D01*
X015056Y018211D01*
X015165Y018216D01*
X015273Y018217D01*
X015382Y018214D01*
X015490Y018207D01*
X015598Y018196D01*
X015705Y018181D01*
X015812Y018162D01*
X015918Y018139D01*
X016023Y018113D01*
X016128Y018082D01*
X016230Y018048D01*
X016332Y018010D01*
X016432Y017968D01*
X016531Y017923D01*
X016628Y017874D01*
X016722Y017821D01*
X016815Y017765D01*
X016906Y017706D01*
X016995Y017643D01*
X017081Y017578D01*
X017165Y017509D01*
X017246Y017437D01*
X017324Y017362D01*
X017400Y017284D01*
X017473Y017203D01*
X017543Y017120D01*
X017609Y017035D01*
X017673Y016947D01*
X017733Y016856D01*
X017790Y016764D01*
X017843Y016669D01*
X017893Y016573D01*
X017939Y016475D01*
X017982Y016375D01*
X018021Y016274D01*
X018056Y016171D01*
X018088Y016068D01*
X018115Y015963D01*
X018139Y015857D01*
X018159Y015750D01*
X018175Y015643D01*
X018187Y015535D01*
X018195Y015427D01*
X018199Y015318D01*
X018199Y015210D01*
X018195Y015101D01*
X018187Y014993D01*
X018175Y014885D01*
X018159Y014778D01*
X018139Y014671D01*
X018115Y014565D01*
X018088Y014460D01*
X018056Y014357D01*
X018021Y014254D01*
X017982Y014153D01*
X017939Y014053D01*
X017893Y013955D01*
X017843Y013859D01*
X017790Y013764D01*
X017733Y013672D01*
X017673Y013581D01*
X017609Y013493D01*
X017543Y013408D01*
X017473Y013325D01*
X017400Y013244D01*
X017324Y013166D01*
X017246Y013091D01*
X017165Y013019D01*
X017081Y012950D01*
X016995Y012885D01*
X016906Y012822D01*
X016815Y012763D01*
X016723Y012707D01*
X016628Y012654D01*
X016531Y012605D01*
X016432Y012560D01*
X016332Y012518D01*
X016230Y012480D01*
X016128Y012446D01*
X016023Y012415D01*
X015918Y012389D01*
X015812Y012366D01*
X015705Y012347D01*
X015598Y012332D01*
X015490Y012321D01*
X015382Y012314D01*
X015273Y012311D01*
X015165Y012312D01*
X015056Y012317D01*
X014948Y012326D01*
X014840Y012339D01*
X014733Y012356D01*
X014627Y012377D01*
X014521Y012401D01*
X014416Y012430D01*
X014313Y012462D01*
X014211Y012498D01*
X014110Y012538D01*
X014010Y012582D01*
X013913Y012629D01*
X013817Y012680D01*
X013723Y012734D01*
X013631Y012792D01*
X013541Y012853D01*
X013454Y012917D01*
X013369Y012985D01*
X013286Y013055D01*
X013206Y013129D01*
X013129Y013205D01*
X013055Y013284D01*
X012984Y013366D01*
X012916Y013450D01*
X012851Y013537D01*
X012789Y013626D01*
X012730Y013718D01*
X012675Y013811D01*
X012624Y013906D01*
X012575Y014004D01*
X012531Y014103D01*
X012490Y014203D01*
X012453Y014305D01*
X012420Y014408D01*
X012390Y014513D01*
X012364Y014618D01*
X012343Y014725D01*
X012325Y014832D01*
X012311Y014939D01*
X012301Y015047D01*
X012295Y015156D01*
X012293Y015264D01*
X013478Y015268D02*
X013480Y015352D01*
X013486Y015435D01*
X013496Y015518D01*
X013510Y015601D01*
X013527Y015683D01*
X013549Y015764D01*
X013574Y015843D01*
X013603Y015922D01*
X013636Y015999D01*
X013672Y016074D01*
X013712Y016148D01*
X013755Y016220D01*
X013802Y016289D01*
X013852Y016356D01*
X013905Y016421D01*
X013961Y016483D01*
X014019Y016543D01*
X014081Y016600D01*
X014145Y016653D01*
X014212Y016704D01*
X014281Y016751D01*
X014352Y016796D01*
X014425Y016836D01*
X014500Y016873D01*
X014577Y016907D01*
X014655Y016937D01*
X014734Y016963D01*
X014815Y016986D01*
X014897Y017004D01*
X014979Y017019D01*
X015062Y017030D01*
X015145Y017037D01*
X015229Y017040D01*
X015313Y017039D01*
X015396Y017034D01*
X015480Y017025D01*
X015562Y017012D01*
X015644Y016996D01*
X015725Y016975D01*
X015806Y016951D01*
X015884Y016923D01*
X015962Y016891D01*
X016038Y016855D01*
X016112Y016816D01*
X016184Y016774D01*
X016254Y016728D01*
X016322Y016679D01*
X016387Y016627D01*
X016450Y016572D01*
X016510Y016514D01*
X016568Y016453D01*
X016622Y016389D01*
X016674Y016323D01*
X016722Y016255D01*
X016767Y016184D01*
X016808Y016111D01*
X016847Y016037D01*
X016881Y015961D01*
X016912Y015883D01*
X016939Y015804D01*
X016963Y015723D01*
X016982Y015642D01*
X016998Y015560D01*
X017010Y015477D01*
X017018Y015393D01*
X017022Y015310D01*
X017022Y015226D01*
X017018Y015143D01*
X017010Y015059D01*
X016998Y014976D01*
X016982Y014894D01*
X016963Y014813D01*
X016939Y014732D01*
X016912Y014653D01*
X016881Y014575D01*
X016847Y014499D01*
X016808Y014425D01*
X016767Y014352D01*
X016722Y014281D01*
X016674Y014213D01*
X016622Y014147D01*
X016568Y014083D01*
X016510Y014022D01*
X016450Y013964D01*
X016387Y013909D01*
X016322Y013857D01*
X016254Y013808D01*
X016184Y013762D01*
X016112Y013720D01*
X016038Y013681D01*
X015962Y013645D01*
X015884Y013613D01*
X015806Y013585D01*
X015725Y013561D01*
X015644Y013540D01*
X015562Y013524D01*
X015480Y013511D01*
X015396Y013502D01*
X015313Y013497D01*
X015229Y013496D01*
X015145Y013499D01*
X015062Y013506D01*
X014979Y013517D01*
X014897Y013532D01*
X014815Y013550D01*
X014734Y013573D01*
X014655Y013599D01*
X014577Y013629D01*
X014500Y013663D01*
X014425Y013700D01*
X014352Y013740D01*
X014281Y013785D01*
X014212Y013832D01*
X014145Y013883D01*
X014081Y013936D01*
X014019Y013993D01*
X013961Y014053D01*
X013905Y014115D01*
X013852Y014180D01*
X013802Y014247D01*
X013755Y014316D01*
X013712Y014388D01*
X013672Y014462D01*
X013636Y014537D01*
X013603Y014614D01*
X013574Y014693D01*
X013549Y014772D01*
X013527Y014853D01*
X013510Y014935D01*
X013496Y015018D01*
X013486Y015101D01*
X013480Y015184D01*
X013478Y015268D01*
X015006Y017063D02*
X014856Y018000D01*
X008248Y015358D02*
X007382Y015370D01*
X007154Y015094D02*
X008047Y015031D01*
X008185Y014547D02*
X007331Y014823D01*
X007035Y014634D02*
X007846Y014232D01*
X007772Y013665D02*
X007091Y014169D01*
X006720Y014106D02*
X007315Y013484D01*
X007130Y012980D02*
X006669Y013665D01*
X006291Y013728D02*
X006772Y012906D01*
X006362Y012583D02*
X006071Y013343D01*
X005732Y013508D02*
X005909Y012602D01*
X005429Y012335D02*
X005457Y013213D01*
X005197Y013465D02*
X005063Y012571D01*
X004543Y012476D02*
X004835Y013315D01*
X004657Y013602D02*
X004268Y012780D01*
X003732Y012835D02*
X004256Y013543D01*
X004134Y013937D02*
X003406Y013327D01*
X002953Y013591D02*
X003701Y014031D01*
X003764Y014445D02*
X002976Y014075D01*
X002524Y014484D02*
X003417Y014685D01*
X003587Y015024D02*
X002681Y014969D01*
X002398Y015465D02*
X003303Y015409D01*
X003587Y015657D02*
X002669Y015949D01*
X002650Y016461D02*
X003461Y016051D01*
X003827Y016201D02*
X003071Y016705D01*
X003177Y017232D02*
X003768Y016642D01*
X004197Y016661D02*
X003594Y017327D01*
X003764Y017705D02*
X004323Y016980D01*
X004657Y016957D02*
X004220Y017736D01*
X004492Y018063D02*
X004823Y017303D01*
X005102Y017063D02*
X004953Y018000D01*
X005343Y018201D02*
X005343Y017378D01*
X005575Y017083D02*
X005776Y017937D01*
X006260Y018031D02*
X005933Y017240D01*
X006122Y016874D02*
X006657Y017630D01*
X007122Y017591D02*
X006512Y016894D01*
X006594Y016547D02*
X007315Y017114D01*
X007764Y016886D02*
X006972Y016465D01*
X006909Y016114D02*
X007783Y016504D01*
X008142Y016146D02*
X007268Y015980D01*
X007079Y015602D02*
X008024Y015728D01*
X003574Y015268D02*
X003576Y015352D01*
X003582Y015435D01*
X003592Y015518D01*
X003606Y015601D01*
X003623Y015683D01*
X003645Y015764D01*
X003670Y015843D01*
X003699Y015922D01*
X003732Y015999D01*
X003768Y016074D01*
X003808Y016148D01*
X003851Y016220D01*
X003898Y016289D01*
X003948Y016356D01*
X004001Y016421D01*
X004057Y016483D01*
X004115Y016543D01*
X004177Y016600D01*
X004241Y016653D01*
X004308Y016704D01*
X004377Y016751D01*
X004448Y016796D01*
X004521Y016836D01*
X004596Y016873D01*
X004673Y016907D01*
X004751Y016937D01*
X004830Y016963D01*
X004911Y016986D01*
X004993Y017004D01*
X005075Y017019D01*
X005158Y017030D01*
X005241Y017037D01*
X005325Y017040D01*
X005409Y017039D01*
X005492Y017034D01*
X005576Y017025D01*
X005658Y017012D01*
X005740Y016996D01*
X005821Y016975D01*
X005902Y016951D01*
X005980Y016923D01*
X006058Y016891D01*
X006134Y016855D01*
X006208Y016816D01*
X006280Y016774D01*
X006350Y016728D01*
X006418Y016679D01*
X006483Y016627D01*
X006546Y016572D01*
X006606Y016514D01*
X006664Y016453D01*
X006718Y016389D01*
X006770Y016323D01*
X006818Y016255D01*
X006863Y016184D01*
X006904Y016111D01*
X006943Y016037D01*
X006977Y015961D01*
X007008Y015883D01*
X007035Y015804D01*
X007059Y015723D01*
X007078Y015642D01*
X007094Y015560D01*
X007106Y015477D01*
X007114Y015393D01*
X007118Y015310D01*
X007118Y015226D01*
X007114Y015143D01*
X007106Y015059D01*
X007094Y014976D01*
X007078Y014894D01*
X007059Y014813D01*
X007035Y014732D01*
X007008Y014653D01*
X006977Y014575D01*
X006943Y014499D01*
X006904Y014425D01*
X006863Y014352D01*
X006818Y014281D01*
X006770Y014213D01*
X006718Y014147D01*
X006664Y014083D01*
X006606Y014022D01*
X006546Y013964D01*
X006483Y013909D01*
X006418Y013857D01*
X006350Y013808D01*
X006280Y013762D01*
X006208Y013720D01*
X006134Y013681D01*
X006058Y013645D01*
X005980Y013613D01*
X005902Y013585D01*
X005821Y013561D01*
X005740Y013540D01*
X005658Y013524D01*
X005576Y013511D01*
X005492Y013502D01*
X005409Y013497D01*
X005325Y013496D01*
X005241Y013499D01*
X005158Y013506D01*
X005075Y013517D01*
X004993Y013532D01*
X004911Y013550D01*
X004830Y013573D01*
X004751Y013599D01*
X004673Y013629D01*
X004596Y013663D01*
X004521Y013700D01*
X004448Y013740D01*
X004377Y013785D01*
X004308Y013832D01*
X004241Y013883D01*
X004177Y013936D01*
X004115Y013993D01*
X004057Y014053D01*
X004001Y014115D01*
X003948Y014180D01*
X003898Y014247D01*
X003851Y014316D01*
X003808Y014388D01*
X003768Y014462D01*
X003732Y014537D01*
X003699Y014614D01*
X003670Y014693D01*
X003645Y014772D01*
X003623Y014853D01*
X003606Y014935D01*
X003592Y015018D01*
X003582Y015101D01*
X003576Y015184D01*
X003574Y015268D01*
X002390Y015264D02*
X002392Y015372D01*
X002398Y015481D01*
X002408Y015589D01*
X002422Y015696D01*
X002440Y015803D01*
X002461Y015910D01*
X002487Y016015D01*
X002517Y016120D01*
X002550Y016223D01*
X002587Y016325D01*
X002628Y016425D01*
X002672Y016524D01*
X002721Y016622D01*
X002772Y016717D01*
X002827Y016810D01*
X002886Y016902D01*
X002948Y016991D01*
X003013Y017078D01*
X003081Y017162D01*
X003152Y017244D01*
X003226Y017323D01*
X003303Y017399D01*
X003383Y017473D01*
X003466Y017543D01*
X003551Y017611D01*
X003638Y017675D01*
X003728Y017736D01*
X003820Y017794D01*
X003914Y017848D01*
X004010Y017899D01*
X004107Y017946D01*
X004207Y017990D01*
X004308Y018030D01*
X004410Y018066D01*
X004513Y018098D01*
X004618Y018127D01*
X004724Y018151D01*
X004830Y018172D01*
X004937Y018189D01*
X005045Y018202D01*
X005153Y018211D01*
X005262Y018216D01*
X005370Y018217D01*
X005479Y018214D01*
X005587Y018207D01*
X005695Y018196D01*
X005802Y018181D01*
X005909Y018162D01*
X006015Y018139D01*
X006120Y018113D01*
X006225Y018082D01*
X006327Y018048D01*
X006429Y018010D01*
X006529Y017968D01*
X006628Y017923D01*
X006725Y017874D01*
X006819Y017821D01*
X006912Y017765D01*
X007003Y017706D01*
X007092Y017643D01*
X007178Y017578D01*
X007262Y017509D01*
X007343Y017437D01*
X007421Y017362D01*
X007497Y017284D01*
X007570Y017203D01*
X007640Y017120D01*
X007706Y017035D01*
X007770Y016947D01*
X007830Y016856D01*
X007887Y016764D01*
X007940Y016669D01*
X007990Y016573D01*
X008036Y016475D01*
X008079Y016375D01*
X008118Y016274D01*
X008153Y016171D01*
X008185Y016068D01*
X008212Y015963D01*
X008236Y015857D01*
X008256Y015750D01*
X008272Y015643D01*
X008284Y015535D01*
X008292Y015427D01*
X008296Y015318D01*
X008296Y015210D01*
X008292Y015101D01*
X008284Y014993D01*
X008272Y014885D01*
X008256Y014778D01*
X008236Y014671D01*
X008212Y014565D01*
X008185Y014460D01*
X008153Y014357D01*
X008118Y014254D01*
X008079Y014153D01*
X008036Y014053D01*
X007990Y013955D01*
X007940Y013859D01*
X007887Y013764D01*
X007830Y013672D01*
X007770Y013581D01*
X007706Y013493D01*
X007640Y013408D01*
X007570Y013325D01*
X007497Y013244D01*
X007421Y013166D01*
X007343Y013091D01*
X007262Y013019D01*
X007178Y012950D01*
X007092Y012885D01*
X007003Y012822D01*
X006912Y012763D01*
X006820Y012707D01*
X006725Y012654D01*
X006628Y012605D01*
X006529Y012560D01*
X006429Y012518D01*
X006327Y012480D01*
X006225Y012446D01*
X006120Y012415D01*
X006015Y012389D01*
X005909Y012366D01*
X005802Y012347D01*
X005695Y012332D01*
X005587Y012321D01*
X005479Y012314D01*
X005370Y012311D01*
X005262Y012312D01*
X005153Y012317D01*
X005045Y012326D01*
X004937Y012339D01*
X004830Y012356D01*
X004724Y012377D01*
X004618Y012401D01*
X004513Y012430D01*
X004410Y012462D01*
X004308Y012498D01*
X004207Y012538D01*
X004107Y012582D01*
X004010Y012629D01*
X003914Y012680D01*
X003820Y012734D01*
X003728Y012792D01*
X003638Y012853D01*
X003551Y012917D01*
X003466Y012985D01*
X003383Y013055D01*
X003303Y013129D01*
X003226Y013205D01*
X003152Y013284D01*
X003081Y013366D01*
X003013Y013450D01*
X002948Y013537D01*
X002886Y013626D01*
X002827Y013718D01*
X002772Y013811D01*
X002721Y013906D01*
X002672Y014004D01*
X002628Y014103D01*
X002587Y014203D01*
X002550Y014305D01*
X002517Y014408D01*
X002487Y014513D01*
X002461Y014618D01*
X002440Y014725D01*
X002422Y014832D01*
X002408Y014939D01*
X002398Y015047D01*
X002392Y015156D01*
X002390Y015264D01*
X005403Y008408D02*
X005403Y007585D01*
X004883Y007511D02*
X004553Y008270D01*
X004281Y007944D02*
X004718Y007164D01*
X004383Y007188D02*
X003824Y007912D01*
X003655Y007534D02*
X004257Y006869D01*
X003828Y006849D02*
X003238Y007440D01*
X003131Y006912D02*
X003887Y006408D01*
X003521Y006259D02*
X002710Y006668D01*
X002730Y006156D02*
X003647Y005865D01*
X003364Y005617D02*
X002458Y005672D01*
X002742Y005176D02*
X003647Y005231D01*
X003478Y004893D02*
X002584Y004692D01*
X003037Y004282D02*
X003824Y004652D01*
X003761Y004239D02*
X003013Y003798D01*
X003466Y003534D02*
X004194Y004144D01*
X004317Y003751D02*
X003793Y003042D01*
X004328Y002987D02*
X004718Y003810D01*
X004895Y003522D02*
X004604Y002684D01*
X005124Y002778D02*
X005257Y003672D01*
X005793Y003715D02*
X005970Y002810D01*
X006423Y002790D02*
X006131Y003550D01*
X006352Y003936D02*
X006832Y003113D01*
X007191Y003188D02*
X006730Y003873D01*
X006781Y004314D02*
X007376Y003692D01*
X007832Y003873D02*
X007151Y004377D01*
X007096Y004841D02*
X007907Y004440D01*
X008246Y004755D02*
X007391Y005030D01*
X007214Y005302D02*
X008108Y005239D01*
X008309Y005566D02*
X007443Y005578D01*
X007139Y005810D02*
X008084Y005936D01*
X008202Y006353D02*
X007328Y006188D01*
X006970Y006322D02*
X007844Y006711D01*
X007824Y007093D02*
X007033Y006672D01*
X006655Y006755D02*
X007376Y007322D01*
X007183Y007798D02*
X006572Y007101D01*
X006183Y007081D02*
X006718Y007837D01*
X006320Y008239D02*
X005994Y007448D01*
X005635Y007290D02*
X005836Y008144D01*
X005013Y008207D02*
X005163Y007270D01*
X003635Y005475D02*
X003637Y005559D01*
X003643Y005642D01*
X003653Y005725D01*
X003667Y005808D01*
X003684Y005890D01*
X003706Y005971D01*
X003731Y006050D01*
X003760Y006129D01*
X003793Y006206D01*
X003829Y006281D01*
X003869Y006355D01*
X003912Y006427D01*
X003959Y006496D01*
X004009Y006563D01*
X004062Y006628D01*
X004118Y006690D01*
X004176Y006750D01*
X004238Y006807D01*
X004302Y006860D01*
X004369Y006911D01*
X004438Y006958D01*
X004509Y007003D01*
X004582Y007043D01*
X004657Y007080D01*
X004734Y007114D01*
X004812Y007144D01*
X004891Y007170D01*
X004972Y007193D01*
X005054Y007211D01*
X005136Y007226D01*
X005219Y007237D01*
X005302Y007244D01*
X005386Y007247D01*
X005470Y007246D01*
X005553Y007241D01*
X005637Y007232D01*
X005719Y007219D01*
X005801Y007203D01*
X005882Y007182D01*
X005963Y007158D01*
X006041Y007130D01*
X006119Y007098D01*
X006195Y007062D01*
X006269Y007023D01*
X006341Y006981D01*
X006411Y006935D01*
X006479Y006886D01*
X006544Y006834D01*
X006607Y006779D01*
X006667Y006721D01*
X006725Y006660D01*
X006779Y006596D01*
X006831Y006530D01*
X006879Y006462D01*
X006924Y006391D01*
X006965Y006318D01*
X007004Y006244D01*
X007038Y006168D01*
X007069Y006090D01*
X007096Y006011D01*
X007120Y005930D01*
X007139Y005849D01*
X007155Y005767D01*
X007167Y005684D01*
X007175Y005600D01*
X007179Y005517D01*
X007179Y005433D01*
X007175Y005350D01*
X007167Y005266D01*
X007155Y005183D01*
X007139Y005101D01*
X007120Y005020D01*
X007096Y004939D01*
X007069Y004860D01*
X007038Y004782D01*
X007004Y004706D01*
X006965Y004632D01*
X006924Y004559D01*
X006879Y004488D01*
X006831Y004420D01*
X006779Y004354D01*
X006725Y004290D01*
X006667Y004229D01*
X006607Y004171D01*
X006544Y004116D01*
X006479Y004064D01*
X006411Y004015D01*
X006341Y003969D01*
X006269Y003927D01*
X006195Y003888D01*
X006119Y003852D01*
X006041Y003820D01*
X005963Y003792D01*
X005882Y003768D01*
X005801Y003747D01*
X005719Y003731D01*
X005637Y003718D01*
X005553Y003709D01*
X005470Y003704D01*
X005386Y003703D01*
X005302Y003706D01*
X005219Y003713D01*
X005136Y003724D01*
X005054Y003739D01*
X004972Y003757D01*
X004891Y003780D01*
X004812Y003806D01*
X004734Y003836D01*
X004657Y003870D01*
X004582Y003907D01*
X004509Y003947D01*
X004438Y003992D01*
X004369Y004039D01*
X004302Y004090D01*
X004238Y004143D01*
X004176Y004200D01*
X004118Y004260D01*
X004062Y004322D01*
X004009Y004387D01*
X003959Y004454D01*
X003912Y004523D01*
X003869Y004595D01*
X003829Y004669D01*
X003793Y004744D01*
X003760Y004821D01*
X003731Y004900D01*
X003706Y004979D01*
X003684Y005060D01*
X003667Y005142D01*
X003653Y005225D01*
X003643Y005308D01*
X003637Y005391D01*
X003635Y005475D01*
X002450Y005471D02*
X002452Y005579D01*
X002458Y005688D01*
X002468Y005796D01*
X002482Y005903D01*
X002500Y006010D01*
X002521Y006117D01*
X002547Y006222D01*
X002577Y006327D01*
X002610Y006430D01*
X002647Y006532D01*
X002688Y006632D01*
X002732Y006731D01*
X002781Y006829D01*
X002832Y006924D01*
X002887Y007017D01*
X002946Y007109D01*
X003008Y007198D01*
X003073Y007285D01*
X003141Y007369D01*
X003212Y007451D01*
X003286Y007530D01*
X003363Y007606D01*
X003443Y007680D01*
X003526Y007750D01*
X003611Y007818D01*
X003698Y007882D01*
X003788Y007943D01*
X003880Y008001D01*
X003974Y008055D01*
X004070Y008106D01*
X004167Y008153D01*
X004267Y008197D01*
X004368Y008237D01*
X004470Y008273D01*
X004573Y008305D01*
X004678Y008334D01*
X004784Y008358D01*
X004890Y008379D01*
X004997Y008396D01*
X005105Y008409D01*
X005213Y008418D01*
X005322Y008423D01*
X005430Y008424D01*
X005539Y008421D01*
X005647Y008414D01*
X005755Y008403D01*
X005862Y008388D01*
X005969Y008369D01*
X006075Y008346D01*
X006180Y008320D01*
X006285Y008289D01*
X006387Y008255D01*
X006489Y008217D01*
X006589Y008175D01*
X006688Y008130D01*
X006785Y008081D01*
X006879Y008028D01*
X006972Y007972D01*
X007063Y007913D01*
X007152Y007850D01*
X007238Y007785D01*
X007322Y007716D01*
X007403Y007644D01*
X007481Y007569D01*
X007557Y007491D01*
X007630Y007410D01*
X007700Y007327D01*
X007766Y007242D01*
X007830Y007154D01*
X007890Y007063D01*
X007947Y006971D01*
X008000Y006876D01*
X008050Y006780D01*
X008096Y006682D01*
X008139Y006582D01*
X008178Y006481D01*
X008213Y006378D01*
X008245Y006275D01*
X008272Y006170D01*
X008296Y006064D01*
X008316Y005957D01*
X008332Y005850D01*
X008344Y005742D01*
X008352Y005634D01*
X008356Y005525D01*
X008356Y005417D01*
X008352Y005308D01*
X008344Y005200D01*
X008332Y005092D01*
X008316Y004985D01*
X008296Y004878D01*
X008272Y004772D01*
X008245Y004667D01*
X008213Y004564D01*
X008178Y004461D01*
X008139Y004360D01*
X008096Y004260D01*
X008050Y004162D01*
X008000Y004066D01*
X007947Y003971D01*
X007890Y003879D01*
X007830Y003788D01*
X007766Y003700D01*
X007700Y003615D01*
X007630Y003532D01*
X007557Y003451D01*
X007481Y003373D01*
X007403Y003298D01*
X007322Y003226D01*
X007238Y003157D01*
X007152Y003092D01*
X007063Y003029D01*
X006972Y002970D01*
X006880Y002914D01*
X006785Y002861D01*
X006688Y002812D01*
X006589Y002767D01*
X006489Y002725D01*
X006387Y002687D01*
X006285Y002653D01*
X006180Y002622D01*
X006075Y002596D01*
X005969Y002573D01*
X005862Y002554D01*
X005755Y002539D01*
X005647Y002528D01*
X005539Y002521D01*
X005430Y002518D01*
X005322Y002519D01*
X005213Y002524D01*
X005105Y002533D01*
X004997Y002546D01*
X004890Y002563D01*
X004784Y002584D01*
X004678Y002608D01*
X004573Y002637D01*
X004470Y002669D01*
X004368Y002705D01*
X004267Y002745D01*
X004167Y002789D01*
X004070Y002836D01*
X003974Y002887D01*
X003880Y002941D01*
X003788Y002999D01*
X003698Y003060D01*
X003611Y003124D01*
X003526Y003192D01*
X003443Y003262D01*
X003363Y003336D01*
X003286Y003412D01*
X003212Y003491D01*
X003141Y003573D01*
X003073Y003657D01*
X003008Y003744D01*
X002946Y003833D01*
X002887Y003925D01*
X002832Y004018D01*
X002781Y004113D01*
X002732Y004211D01*
X002688Y004310D01*
X002647Y004410D01*
X002610Y004512D01*
X002577Y004615D01*
X002547Y004720D01*
X002521Y004825D01*
X002500Y004932D01*
X002482Y005039D01*
X002468Y005146D01*
X002458Y005254D01*
X002452Y005363D01*
X002450Y005471D01*
X005517Y003420D02*
X005490Y002542D01*
X012427Y004642D02*
X013320Y004843D01*
X013667Y004602D02*
X012880Y004232D01*
X012856Y003748D02*
X013604Y004189D01*
X014037Y004094D02*
X013309Y003484D01*
X013635Y002992D02*
X014159Y003701D01*
X014561Y003760D02*
X014171Y002937D01*
X014446Y002634D02*
X014738Y003472D01*
X015100Y003622D02*
X014966Y002728D01*
X015332Y002492D02*
X015360Y003370D01*
X015974Y003500D02*
X016265Y002740D01*
X015813Y002760D02*
X015635Y003665D01*
X016194Y003886D02*
X016675Y003063D01*
X017033Y003138D02*
X016572Y003823D01*
X016624Y004264D02*
X017218Y003642D01*
X017675Y003823D02*
X016994Y004327D01*
X016939Y004791D02*
X017750Y004390D01*
X018088Y004705D02*
X017234Y004980D01*
X017057Y005252D02*
X017950Y005189D01*
X018151Y005516D02*
X017285Y005528D01*
X016982Y005760D02*
X017927Y005886D01*
X018045Y006303D02*
X017171Y006138D01*
X016813Y006272D02*
X017687Y006661D01*
X017667Y007043D02*
X016876Y006622D01*
X016498Y006705D02*
X017218Y007272D01*
X017025Y007748D02*
X016415Y007051D01*
X016025Y007031D02*
X016561Y007787D01*
X016163Y008189D02*
X015836Y007398D01*
X015478Y007240D02*
X015679Y008094D01*
X015246Y008358D02*
X015246Y007535D01*
X014726Y007461D02*
X014395Y008220D01*
X014856Y008157D02*
X015006Y007220D01*
X014561Y007114D02*
X014124Y007894D01*
X013667Y007862D02*
X014226Y007138D01*
X014100Y006819D02*
X013498Y007484D01*
X013080Y007390D02*
X013671Y006799D01*
X013730Y006358D02*
X012974Y006862D01*
X012553Y006618D02*
X013364Y006209D01*
X013490Y005815D02*
X012572Y006106D01*
X012301Y005622D02*
X013206Y005567D01*
X013490Y005181D02*
X012584Y005126D01*
X012293Y005421D02*
X012295Y005529D01*
X012301Y005638D01*
X012311Y005746D01*
X012325Y005853D01*
X012343Y005960D01*
X012364Y006067D01*
X012390Y006172D01*
X012420Y006277D01*
X012453Y006380D01*
X012490Y006482D01*
X012531Y006582D01*
X012575Y006681D01*
X012624Y006779D01*
X012675Y006874D01*
X012730Y006967D01*
X012789Y007059D01*
X012851Y007148D01*
X012916Y007235D01*
X012984Y007319D01*
X013055Y007401D01*
X013129Y007480D01*
X013206Y007556D01*
X013286Y007630D01*
X013369Y007700D01*
X013454Y007768D01*
X013541Y007832D01*
X013631Y007893D01*
X013723Y007951D01*
X013817Y008005D01*
X013913Y008056D01*
X014010Y008103D01*
X014110Y008147D01*
X014211Y008187D01*
X014313Y008223D01*
X014416Y008255D01*
X014521Y008284D01*
X014627Y008308D01*
X014733Y008329D01*
X014840Y008346D01*
X014948Y008359D01*
X015056Y008368D01*
X015165Y008373D01*
X015273Y008374D01*
X015382Y008371D01*
X015490Y008364D01*
X015598Y008353D01*
X015705Y008338D01*
X015812Y008319D01*
X015918Y008296D01*
X016023Y008270D01*
X016128Y008239D01*
X016230Y008205D01*
X016332Y008167D01*
X016432Y008125D01*
X016531Y008080D01*
X016628Y008031D01*
X016722Y007978D01*
X016815Y007922D01*
X016906Y007863D01*
X016995Y007800D01*
X017081Y007735D01*
X017165Y007666D01*
X017246Y007594D01*
X017324Y007519D01*
X017400Y007441D01*
X017473Y007360D01*
X017543Y007277D01*
X017609Y007192D01*
X017673Y007104D01*
X017733Y007013D01*
X017790Y006921D01*
X017843Y006826D01*
X017893Y006730D01*
X017939Y006632D01*
X017982Y006532D01*
X018021Y006431D01*
X018056Y006328D01*
X018088Y006225D01*
X018115Y006120D01*
X018139Y006014D01*
X018159Y005907D01*
X018175Y005800D01*
X018187Y005692D01*
X018195Y005584D01*
X018199Y005475D01*
X018199Y005367D01*
X018195Y005258D01*
X018187Y005150D01*
X018175Y005042D01*
X018159Y004935D01*
X018139Y004828D01*
X018115Y004722D01*
X018088Y004617D01*
X018056Y004514D01*
X018021Y004411D01*
X017982Y004310D01*
X017939Y004210D01*
X017893Y004112D01*
X017843Y004016D01*
X017790Y003921D01*
X017733Y003829D01*
X017673Y003738D01*
X017609Y003650D01*
X017543Y003565D01*
X017473Y003482D01*
X017400Y003401D01*
X017324Y003323D01*
X017246Y003248D01*
X017165Y003176D01*
X017081Y003107D01*
X016995Y003042D01*
X016906Y002979D01*
X016815Y002920D01*
X016723Y002864D01*
X016628Y002811D01*
X016531Y002762D01*
X016432Y002717D01*
X016332Y002675D01*
X016230Y002637D01*
X016128Y002603D01*
X016023Y002572D01*
X015918Y002546D01*
X015812Y002523D01*
X015705Y002504D01*
X015598Y002489D01*
X015490Y002478D01*
X015382Y002471D01*
X015273Y002468D01*
X015165Y002469D01*
X015056Y002474D01*
X014948Y002483D01*
X014840Y002496D01*
X014733Y002513D01*
X014627Y002534D01*
X014521Y002558D01*
X014416Y002587D01*
X014313Y002619D01*
X014211Y002655D01*
X014110Y002695D01*
X014010Y002739D01*
X013913Y002786D01*
X013817Y002837D01*
X013723Y002891D01*
X013631Y002949D01*
X013541Y003010D01*
X013454Y003074D01*
X013369Y003142D01*
X013286Y003212D01*
X013206Y003286D01*
X013129Y003362D01*
X013055Y003441D01*
X012984Y003523D01*
X012916Y003607D01*
X012851Y003694D01*
X012789Y003783D01*
X012730Y003875D01*
X012675Y003968D01*
X012624Y004063D01*
X012575Y004161D01*
X012531Y004260D01*
X012490Y004360D01*
X012453Y004462D01*
X012420Y004565D01*
X012390Y004670D01*
X012364Y004775D01*
X012343Y004882D01*
X012325Y004989D01*
X012311Y005096D01*
X012301Y005204D01*
X012295Y005313D01*
X012293Y005421D01*
X013478Y005425D02*
X013480Y005509D01*
X013486Y005592D01*
X013496Y005675D01*
X013510Y005758D01*
X013527Y005840D01*
X013549Y005921D01*
X013574Y006000D01*
X013603Y006079D01*
X013636Y006156D01*
X013672Y006231D01*
X013712Y006305D01*
X013755Y006377D01*
X013802Y006446D01*
X013852Y006513D01*
X013905Y006578D01*
X013961Y006640D01*
X014019Y006700D01*
X014081Y006757D01*
X014145Y006810D01*
X014212Y006861D01*
X014281Y006908D01*
X014352Y006953D01*
X014425Y006993D01*
X014500Y007030D01*
X014577Y007064D01*
X014655Y007094D01*
X014734Y007120D01*
X014815Y007143D01*
X014897Y007161D01*
X014979Y007176D01*
X015062Y007187D01*
X015145Y007194D01*
X015229Y007197D01*
X015313Y007196D01*
X015396Y007191D01*
X015480Y007182D01*
X015562Y007169D01*
X015644Y007153D01*
X015725Y007132D01*
X015806Y007108D01*
X015884Y007080D01*
X015962Y007048D01*
X016038Y007012D01*
X016112Y006973D01*
X016184Y006931D01*
X016254Y006885D01*
X016322Y006836D01*
X016387Y006784D01*
X016450Y006729D01*
X016510Y006671D01*
X016568Y006610D01*
X016622Y006546D01*
X016674Y006480D01*
X016722Y006412D01*
X016767Y006341D01*
X016808Y006268D01*
X016847Y006194D01*
X016881Y006118D01*
X016912Y006040D01*
X016939Y005961D01*
X016963Y005880D01*
X016982Y005799D01*
X016998Y005717D01*
X017010Y005634D01*
X017018Y005550D01*
X017022Y005467D01*
X017022Y005383D01*
X017018Y005300D01*
X017010Y005216D01*
X016998Y005133D01*
X016982Y005051D01*
X016963Y004970D01*
X016939Y004889D01*
X016912Y004810D01*
X016881Y004732D01*
X016847Y004656D01*
X016808Y004582D01*
X016767Y004509D01*
X016722Y004438D01*
X016674Y004370D01*
X016622Y004304D01*
X016568Y004240D01*
X016510Y004179D01*
X016450Y004121D01*
X016387Y004066D01*
X016322Y004014D01*
X016254Y003965D01*
X016184Y003919D01*
X016112Y003877D01*
X016038Y003838D01*
X015962Y003802D01*
X015884Y003770D01*
X015806Y003742D01*
X015725Y003718D01*
X015644Y003697D01*
X015562Y003681D01*
X015480Y003668D01*
X015396Y003659D01*
X015313Y003654D01*
X015229Y003653D01*
X015145Y003656D01*
X015062Y003663D01*
X014979Y003674D01*
X014897Y003689D01*
X014815Y003707D01*
X014734Y003730D01*
X014655Y003756D01*
X014577Y003786D01*
X014500Y003820D01*
X014425Y003857D01*
X014352Y003897D01*
X014281Y003942D01*
X014212Y003989D01*
X014145Y004040D01*
X014081Y004093D01*
X014019Y004150D01*
X013961Y004210D01*
X013905Y004272D01*
X013852Y004337D01*
X013802Y004404D01*
X013755Y004473D01*
X013712Y004545D01*
X013672Y004619D01*
X013636Y004694D01*
X013603Y004771D01*
X013574Y004850D01*
X013549Y004929D01*
X013527Y005010D01*
X013510Y005092D01*
X013496Y005175D01*
X013486Y005258D01*
X013480Y005341D01*
X013478Y005425D01*
D13*
X013524Y005807D03*
X012524Y006607D03*
X003682Y005857D03*
X002682Y006657D03*
X003621Y015650D03*
X002621Y016450D03*
X012524Y016450D03*
X013524Y015650D03*
D14*
X019400Y012400D03*
X019400Y011400D03*
X019400Y010400D03*
X019400Y009400D03*
X019400Y008400D03*
X019400Y006100D03*
X019400Y005100D03*
X019400Y004100D03*
X019400Y003100D03*
D15*
X016228Y004791D03*
X014299Y004791D03*
X014299Y006051D03*
X016228Y006051D03*
X006386Y006051D03*
X006386Y004791D03*
X004457Y004791D03*
X004457Y006051D03*
X004457Y014634D03*
X004457Y015894D03*
X006386Y015894D03*
X006386Y014634D03*
X014299Y014634D03*
X016228Y014634D03*
X016228Y015894D03*
X014299Y015894D03*
D16*
X022500Y015740D02*
X022500Y016260D01*
X023500Y016260D02*
X023500Y015740D01*
X024500Y015740D02*
X024500Y016260D01*
X025500Y016260D02*
X025500Y015740D01*
X026500Y015740D02*
X026500Y016260D01*
X027500Y016260D02*
X027500Y015740D01*
X028500Y015740D02*
X028500Y016260D01*
X029500Y016260D02*
X029500Y015740D01*
X030500Y015740D02*
X030500Y016260D01*
X031500Y016260D02*
X031500Y015740D01*
X032500Y015740D02*
X032500Y016260D01*
X033500Y016260D02*
X033500Y015740D01*
X034500Y015740D02*
X034500Y016260D01*
X035500Y016260D02*
X035500Y015740D01*
X035500Y013260D02*
X035500Y012740D01*
X034500Y012740D02*
X034500Y013260D01*
X033500Y013260D02*
X033500Y012740D01*
X032500Y012740D02*
X032500Y013260D01*
X031500Y013260D02*
X031500Y012740D01*
X030500Y012740D02*
X030500Y013260D01*
X029500Y013260D02*
X029500Y012740D01*
X028500Y012740D02*
X028500Y013260D01*
X027500Y013260D02*
X027500Y012740D01*
X026500Y012740D02*
X026500Y013260D01*
X025500Y013260D02*
X025500Y012740D01*
X024500Y012740D02*
X024500Y013260D01*
X023500Y013260D02*
X023500Y012740D01*
X022500Y012740D02*
X022500Y013260D01*
D17*
X020900Y013400D03*
X020900Y012400D03*
X020900Y011400D03*
X020900Y010400D03*
X020900Y009400D03*
X020900Y008400D03*
X020900Y007400D03*
X020900Y006100D03*
X020900Y005100D03*
X020900Y004100D03*
X023125Y002400D03*
X024125Y002400D03*
X025125Y002400D03*
X026125Y002400D03*
X027125Y002400D03*
X028125Y002400D03*
X029125Y002400D03*
X030125Y002400D03*
X031125Y002400D03*
X032125Y002400D03*
X033125Y002400D03*
X034125Y002400D03*
X036100Y007000D03*
X036100Y008200D03*
X034125Y009400D03*
X033125Y009400D03*
X032125Y009400D03*
X031125Y009400D03*
X030125Y009400D03*
X029125Y009400D03*
X028125Y009400D03*
X027125Y009400D03*
X026125Y009400D03*
X025125Y009400D03*
X024125Y009400D03*
X023125Y009400D03*
X023900Y008000D03*
X024900Y008000D03*
X025900Y008000D03*
X026900Y008000D03*
X027900Y008000D03*
X028900Y008000D03*
X028900Y007100D03*
X027900Y007100D03*
X026900Y007100D03*
X025900Y007100D03*
X024900Y007100D03*
X023900Y007100D03*
X032100Y007000D03*
X032100Y008200D03*
X028900Y012000D03*
X027900Y012000D03*
X026900Y012000D03*
X025900Y012000D03*
X024900Y012000D03*
X023900Y012000D03*
X020900Y014400D03*
X020900Y015400D03*
X020900Y016400D03*
X023800Y017300D03*
X024800Y017300D03*
D18*
X025125Y010500D03*
X024125Y010500D03*
X023125Y010500D03*
X026125Y010500D03*
X027125Y010500D03*
X028125Y010500D03*
X029125Y010500D03*
X030125Y010500D03*
X031125Y010500D03*
X032125Y010500D03*
X033125Y010500D03*
X034125Y010500D03*
X034125Y001200D03*
X033125Y001200D03*
X032125Y001200D03*
X031125Y001200D03*
X030125Y001200D03*
X029125Y001200D03*
X028125Y001200D03*
X027125Y001200D03*
X026125Y001200D03*
X025125Y001200D03*
X024125Y001200D03*
X023125Y001200D03*
D19*
X005900Y005900D03*
D20*
X004800Y006700D03*
X004100Y005200D03*
X005900Y004200D03*
X008700Y006300D03*
X008500Y008100D03*
X012100Y008600D03*
X012000Y009600D03*
X015700Y006700D03*
X014800Y005500D03*
X014900Y004200D03*
X015800Y004200D03*
X018500Y007100D03*
X008100Y013300D03*
X006100Y014100D03*
X004700Y014000D03*
X006700Y015500D03*
X004900Y016600D03*
X007900Y018500D03*
X009200Y018500D03*
X014700Y016400D03*
X015900Y016500D03*
X017100Y018300D03*
X011500Y015400D03*
X014500Y014200D03*
X015800Y014000D03*
X003700Y009300D03*
X002200Y008000D03*
X030900Y006000D03*
M02*
