G75*
%MOIN*%
%OFA0B0*%
%FSLAX24Y24*%
%IPPOS*%
%LPD*%
%AMOC8*
5,1,8,0,0,1.08239X$1,22.5*
%
%ADD10C,0.0000*%
%ADD11C,0.0020*%
%ADD12C,0.0080*%
%ADD13C,0.0060*%
%ADD14C,0.0098*%
%ADD15C,0.0050*%
D10*
X002665Y001484D02*
X002667Y001532D01*
X002673Y001580D01*
X002683Y001627D01*
X002696Y001673D01*
X002714Y001718D01*
X002734Y001762D01*
X002759Y001804D01*
X002787Y001843D01*
X002817Y001880D01*
X002851Y001914D01*
X002888Y001946D01*
X002926Y001975D01*
X002967Y002000D01*
X003010Y002022D01*
X003055Y002040D01*
X003101Y002054D01*
X003148Y002065D01*
X003196Y002072D01*
X003244Y002075D01*
X003292Y002074D01*
X003340Y002069D01*
X003388Y002060D01*
X003434Y002048D01*
X003479Y002031D01*
X003523Y002011D01*
X003565Y001988D01*
X003605Y001961D01*
X003643Y001931D01*
X003678Y001898D01*
X003710Y001862D01*
X003740Y001824D01*
X003766Y001783D01*
X003788Y001740D01*
X003808Y001696D01*
X003823Y001651D01*
X003835Y001604D01*
X003843Y001556D01*
X003847Y001508D01*
X003847Y001460D01*
X003843Y001412D01*
X003835Y001364D01*
X003823Y001317D01*
X003808Y001272D01*
X003788Y001228D01*
X003766Y001185D01*
X003740Y001144D01*
X003710Y001106D01*
X003678Y001070D01*
X003643Y001037D01*
X003605Y001007D01*
X003565Y000980D01*
X003523Y000957D01*
X003479Y000937D01*
X003434Y000920D01*
X003388Y000908D01*
X003340Y000899D01*
X003292Y000894D01*
X003244Y000893D01*
X003196Y000896D01*
X003148Y000903D01*
X003101Y000914D01*
X003055Y000928D01*
X003010Y000946D01*
X002967Y000968D01*
X002926Y000993D01*
X002888Y001022D01*
X002851Y001054D01*
X002817Y001088D01*
X002787Y001125D01*
X002759Y001164D01*
X002734Y001206D01*
X002714Y001250D01*
X002696Y001295D01*
X002683Y001341D01*
X002673Y001388D01*
X002667Y001436D01*
X002665Y001484D01*
X009752Y005421D02*
X009754Y005469D01*
X009760Y005517D01*
X009770Y005564D01*
X009783Y005610D01*
X009801Y005655D01*
X009821Y005699D01*
X009846Y005741D01*
X009874Y005780D01*
X009904Y005817D01*
X009938Y005851D01*
X009975Y005883D01*
X010013Y005912D01*
X010054Y005937D01*
X010097Y005959D01*
X010142Y005977D01*
X010188Y005991D01*
X010235Y006002D01*
X010283Y006009D01*
X010331Y006012D01*
X010379Y006011D01*
X010427Y006006D01*
X010475Y005997D01*
X010521Y005985D01*
X010566Y005968D01*
X010610Y005948D01*
X010652Y005925D01*
X010692Y005898D01*
X010730Y005868D01*
X010765Y005835D01*
X010797Y005799D01*
X010827Y005761D01*
X010853Y005720D01*
X010875Y005677D01*
X010895Y005633D01*
X010910Y005588D01*
X010922Y005541D01*
X010930Y005493D01*
X010934Y005445D01*
X010934Y005397D01*
X010930Y005349D01*
X010922Y005301D01*
X010910Y005254D01*
X010895Y005209D01*
X010875Y005165D01*
X010853Y005122D01*
X010827Y005081D01*
X010797Y005043D01*
X010765Y005007D01*
X010730Y004974D01*
X010692Y004944D01*
X010652Y004917D01*
X010610Y004894D01*
X010566Y004874D01*
X010521Y004857D01*
X010475Y004845D01*
X010427Y004836D01*
X010379Y004831D01*
X010331Y004830D01*
X010283Y004833D01*
X010235Y004840D01*
X010188Y004851D01*
X010142Y004865D01*
X010097Y004883D01*
X010054Y004905D01*
X010013Y004930D01*
X009975Y004959D01*
X009938Y004991D01*
X009904Y005025D01*
X009874Y005062D01*
X009846Y005101D01*
X009821Y005143D01*
X009801Y005187D01*
X009783Y005232D01*
X009770Y005278D01*
X009760Y005325D01*
X009754Y005373D01*
X009752Y005421D01*
X004830Y010343D02*
X004832Y010391D01*
X004838Y010439D01*
X004848Y010486D01*
X004861Y010532D01*
X004879Y010577D01*
X004899Y010621D01*
X004924Y010663D01*
X004952Y010702D01*
X004982Y010739D01*
X005016Y010773D01*
X005053Y010805D01*
X005091Y010834D01*
X005132Y010859D01*
X005175Y010881D01*
X005220Y010899D01*
X005266Y010913D01*
X005313Y010924D01*
X005361Y010931D01*
X005409Y010934D01*
X005457Y010933D01*
X005505Y010928D01*
X005553Y010919D01*
X005599Y010907D01*
X005644Y010890D01*
X005688Y010870D01*
X005730Y010847D01*
X005770Y010820D01*
X005808Y010790D01*
X005843Y010757D01*
X005875Y010721D01*
X005905Y010683D01*
X005931Y010642D01*
X005953Y010599D01*
X005973Y010555D01*
X005988Y010510D01*
X006000Y010463D01*
X006008Y010415D01*
X006012Y010367D01*
X006012Y010319D01*
X006008Y010271D01*
X006000Y010223D01*
X005988Y010176D01*
X005973Y010131D01*
X005953Y010087D01*
X005931Y010044D01*
X005905Y010003D01*
X005875Y009965D01*
X005843Y009929D01*
X005808Y009896D01*
X005770Y009866D01*
X005730Y009839D01*
X005688Y009816D01*
X005644Y009796D01*
X005599Y009779D01*
X005553Y009767D01*
X005505Y009758D01*
X005457Y009753D01*
X005409Y009752D01*
X005361Y009755D01*
X005313Y009762D01*
X005266Y009773D01*
X005220Y009787D01*
X005175Y009805D01*
X005132Y009827D01*
X005091Y009852D01*
X005053Y009881D01*
X005016Y009913D01*
X004982Y009947D01*
X004952Y009984D01*
X004924Y010023D01*
X004899Y010065D01*
X004879Y010109D01*
X004861Y010154D01*
X004848Y010200D01*
X004838Y010247D01*
X004832Y010295D01*
X004830Y010343D01*
X009752Y015264D02*
X009754Y015312D01*
X009760Y015360D01*
X009770Y015407D01*
X009783Y015453D01*
X009801Y015498D01*
X009821Y015542D01*
X009846Y015584D01*
X009874Y015623D01*
X009904Y015660D01*
X009938Y015694D01*
X009975Y015726D01*
X010013Y015755D01*
X010054Y015780D01*
X010097Y015802D01*
X010142Y015820D01*
X010188Y015834D01*
X010235Y015845D01*
X010283Y015852D01*
X010331Y015855D01*
X010379Y015854D01*
X010427Y015849D01*
X010475Y015840D01*
X010521Y015828D01*
X010566Y015811D01*
X010610Y015791D01*
X010652Y015768D01*
X010692Y015741D01*
X010730Y015711D01*
X010765Y015678D01*
X010797Y015642D01*
X010827Y015604D01*
X010853Y015563D01*
X010875Y015520D01*
X010895Y015476D01*
X010910Y015431D01*
X010922Y015384D01*
X010930Y015336D01*
X010934Y015288D01*
X010934Y015240D01*
X010930Y015192D01*
X010922Y015144D01*
X010910Y015097D01*
X010895Y015052D01*
X010875Y015008D01*
X010853Y014965D01*
X010827Y014924D01*
X010797Y014886D01*
X010765Y014850D01*
X010730Y014817D01*
X010692Y014787D01*
X010652Y014760D01*
X010610Y014737D01*
X010566Y014717D01*
X010521Y014700D01*
X010475Y014688D01*
X010427Y014679D01*
X010379Y014674D01*
X010331Y014673D01*
X010283Y014676D01*
X010235Y014683D01*
X010188Y014694D01*
X010142Y014708D01*
X010097Y014726D01*
X010054Y014748D01*
X010013Y014773D01*
X009975Y014802D01*
X009938Y014834D01*
X009904Y014868D01*
X009874Y014905D01*
X009846Y014944D01*
X009821Y014986D01*
X009801Y015030D01*
X009783Y015075D01*
X009770Y015121D01*
X009760Y015168D01*
X009754Y015216D01*
X009752Y015264D01*
X000893Y017035D02*
X000895Y017083D01*
X000901Y017131D01*
X000911Y017178D01*
X000924Y017224D01*
X000942Y017269D01*
X000962Y017313D01*
X000987Y017355D01*
X001015Y017394D01*
X001045Y017431D01*
X001079Y017465D01*
X001116Y017497D01*
X001154Y017526D01*
X001195Y017551D01*
X001238Y017573D01*
X001283Y017591D01*
X001329Y017605D01*
X001376Y017616D01*
X001424Y017623D01*
X001472Y017626D01*
X001520Y017625D01*
X001568Y017620D01*
X001616Y017611D01*
X001662Y017599D01*
X001707Y017582D01*
X001751Y017562D01*
X001793Y017539D01*
X001833Y017512D01*
X001871Y017482D01*
X001906Y017449D01*
X001938Y017413D01*
X001968Y017375D01*
X001994Y017334D01*
X002016Y017291D01*
X002036Y017247D01*
X002051Y017202D01*
X002063Y017155D01*
X002071Y017107D01*
X002075Y017059D01*
X002075Y017011D01*
X002071Y016963D01*
X002063Y016915D01*
X002051Y016868D01*
X002036Y016823D01*
X002016Y016779D01*
X001994Y016736D01*
X001968Y016695D01*
X001938Y016657D01*
X001906Y016621D01*
X001871Y016588D01*
X001833Y016558D01*
X001793Y016531D01*
X001751Y016508D01*
X001707Y016488D01*
X001662Y016471D01*
X001616Y016459D01*
X001568Y016450D01*
X001520Y016445D01*
X001472Y016444D01*
X001424Y016447D01*
X001376Y016454D01*
X001329Y016465D01*
X001283Y016479D01*
X001238Y016497D01*
X001195Y016519D01*
X001154Y016544D01*
X001116Y016573D01*
X001079Y016605D01*
X001045Y016639D01*
X001015Y016676D01*
X000987Y016715D01*
X000962Y016757D01*
X000942Y016801D01*
X000924Y016846D01*
X000911Y016892D01*
X000901Y016939D01*
X000895Y016987D01*
X000893Y017035D01*
X014673Y010343D02*
X014675Y010391D01*
X014681Y010439D01*
X014691Y010486D01*
X014704Y010532D01*
X014722Y010577D01*
X014742Y010621D01*
X014767Y010663D01*
X014795Y010702D01*
X014825Y010739D01*
X014859Y010773D01*
X014896Y010805D01*
X014934Y010834D01*
X014975Y010859D01*
X015018Y010881D01*
X015063Y010899D01*
X015109Y010913D01*
X015156Y010924D01*
X015204Y010931D01*
X015252Y010934D01*
X015300Y010933D01*
X015348Y010928D01*
X015396Y010919D01*
X015442Y010907D01*
X015487Y010890D01*
X015531Y010870D01*
X015573Y010847D01*
X015613Y010820D01*
X015651Y010790D01*
X015686Y010757D01*
X015718Y010721D01*
X015748Y010683D01*
X015774Y010642D01*
X015796Y010599D01*
X015816Y010555D01*
X015831Y010510D01*
X015843Y010463D01*
X015851Y010415D01*
X015855Y010367D01*
X015855Y010319D01*
X015851Y010271D01*
X015843Y010223D01*
X015831Y010176D01*
X015816Y010131D01*
X015796Y010087D01*
X015774Y010044D01*
X015748Y010003D01*
X015718Y009965D01*
X015686Y009929D01*
X015651Y009896D01*
X015613Y009866D01*
X015573Y009839D01*
X015531Y009816D01*
X015487Y009796D01*
X015442Y009779D01*
X015396Y009767D01*
X015348Y009758D01*
X015300Y009753D01*
X015252Y009752D01*
X015204Y009755D01*
X015156Y009762D01*
X015109Y009773D01*
X015063Y009787D01*
X015018Y009805D01*
X014975Y009827D01*
X014934Y009852D01*
X014896Y009881D01*
X014859Y009913D01*
X014825Y009947D01*
X014795Y009984D01*
X014767Y010023D01*
X014742Y010065D01*
X014722Y010109D01*
X014704Y010154D01*
X014691Y010200D01*
X014681Y010247D01*
X014675Y010295D01*
X014673Y010343D01*
X021662Y017429D02*
X021664Y017473D01*
X021670Y017517D01*
X021680Y017560D01*
X021693Y017602D01*
X021711Y017642D01*
X021732Y017681D01*
X021756Y017718D01*
X021783Y017753D01*
X021814Y017785D01*
X021847Y017814D01*
X021883Y017840D01*
X021921Y017862D01*
X021961Y017881D01*
X022002Y017897D01*
X022045Y017909D01*
X022088Y017917D01*
X022132Y017921D01*
X022176Y017921D01*
X022220Y017917D01*
X022263Y017909D01*
X022306Y017897D01*
X022347Y017881D01*
X022387Y017862D01*
X022425Y017840D01*
X022461Y017814D01*
X022494Y017785D01*
X022525Y017753D01*
X022552Y017718D01*
X022576Y017681D01*
X022597Y017642D01*
X022615Y017602D01*
X022628Y017560D01*
X022638Y017517D01*
X022644Y017473D01*
X022646Y017429D01*
X022644Y017385D01*
X022638Y017341D01*
X022628Y017298D01*
X022615Y017256D01*
X022597Y017216D01*
X022576Y017177D01*
X022552Y017140D01*
X022525Y017105D01*
X022494Y017073D01*
X022461Y017044D01*
X022425Y017018D01*
X022387Y016996D01*
X022347Y016977D01*
X022306Y016961D01*
X022263Y016949D01*
X022220Y016941D01*
X022176Y016937D01*
X022132Y016937D01*
X022088Y016941D01*
X022045Y016949D01*
X022002Y016961D01*
X021961Y016977D01*
X021921Y016996D01*
X021883Y017018D01*
X021847Y017044D01*
X021814Y017073D01*
X021783Y017105D01*
X021756Y017140D01*
X021732Y017177D01*
X021711Y017216D01*
X021693Y017256D01*
X021680Y017298D01*
X021670Y017341D01*
X021664Y017385D01*
X021662Y017429D01*
X018610Y019201D02*
X018612Y019249D01*
X018618Y019297D01*
X018628Y019344D01*
X018641Y019390D01*
X018659Y019435D01*
X018679Y019479D01*
X018704Y019521D01*
X018732Y019560D01*
X018762Y019597D01*
X018796Y019631D01*
X018833Y019663D01*
X018871Y019692D01*
X018912Y019717D01*
X018955Y019739D01*
X019000Y019757D01*
X019046Y019771D01*
X019093Y019782D01*
X019141Y019789D01*
X019189Y019792D01*
X019237Y019791D01*
X019285Y019786D01*
X019333Y019777D01*
X019379Y019765D01*
X019424Y019748D01*
X019468Y019728D01*
X019510Y019705D01*
X019550Y019678D01*
X019588Y019648D01*
X019623Y019615D01*
X019655Y019579D01*
X019685Y019541D01*
X019711Y019500D01*
X019733Y019457D01*
X019753Y019413D01*
X019768Y019368D01*
X019780Y019321D01*
X019788Y019273D01*
X019792Y019225D01*
X019792Y019177D01*
X019788Y019129D01*
X019780Y019081D01*
X019768Y019034D01*
X019753Y018989D01*
X019733Y018945D01*
X019711Y018902D01*
X019685Y018861D01*
X019655Y018823D01*
X019623Y018787D01*
X019588Y018754D01*
X019550Y018724D01*
X019510Y018697D01*
X019468Y018674D01*
X019424Y018654D01*
X019379Y018637D01*
X019333Y018625D01*
X019285Y018616D01*
X019237Y018611D01*
X019189Y018610D01*
X019141Y018613D01*
X019093Y018620D01*
X019046Y018631D01*
X019000Y018645D01*
X018955Y018663D01*
X018912Y018685D01*
X018871Y018710D01*
X018833Y018739D01*
X018796Y018771D01*
X018762Y018805D01*
X018732Y018842D01*
X018704Y018881D01*
X018679Y018923D01*
X018659Y018967D01*
X018641Y019012D01*
X018628Y019058D01*
X018618Y019105D01*
X018612Y019153D01*
X018610Y019201D01*
X034654Y017232D02*
X034656Y017276D01*
X034662Y017320D01*
X034672Y017363D01*
X034685Y017405D01*
X034703Y017445D01*
X034724Y017484D01*
X034748Y017521D01*
X034775Y017556D01*
X034806Y017588D01*
X034839Y017617D01*
X034875Y017643D01*
X034913Y017665D01*
X034953Y017684D01*
X034994Y017700D01*
X035037Y017712D01*
X035080Y017720D01*
X035124Y017724D01*
X035168Y017724D01*
X035212Y017720D01*
X035255Y017712D01*
X035298Y017700D01*
X035339Y017684D01*
X035379Y017665D01*
X035417Y017643D01*
X035453Y017617D01*
X035486Y017588D01*
X035517Y017556D01*
X035544Y017521D01*
X035568Y017484D01*
X035589Y017445D01*
X035607Y017405D01*
X035620Y017363D01*
X035630Y017320D01*
X035636Y017276D01*
X035638Y017232D01*
X035636Y017188D01*
X035630Y017144D01*
X035620Y017101D01*
X035607Y017059D01*
X035589Y017019D01*
X035568Y016980D01*
X035544Y016943D01*
X035517Y016908D01*
X035486Y016876D01*
X035453Y016847D01*
X035417Y016821D01*
X035379Y016799D01*
X035339Y016780D01*
X035298Y016764D01*
X035255Y016752D01*
X035212Y016744D01*
X035168Y016740D01*
X035124Y016740D01*
X035080Y016744D01*
X035037Y016752D01*
X034994Y016764D01*
X034953Y016780D01*
X034913Y016799D01*
X034875Y016821D01*
X034839Y016847D01*
X034806Y016876D01*
X034775Y016908D01*
X034748Y016943D01*
X034724Y016980D01*
X034703Y017019D01*
X034685Y017059D01*
X034672Y017101D01*
X034662Y017144D01*
X034656Y017188D01*
X034654Y017232D01*
X035835Y003256D02*
X035837Y003300D01*
X035843Y003344D01*
X035853Y003387D01*
X035866Y003429D01*
X035884Y003469D01*
X035905Y003508D01*
X035929Y003545D01*
X035956Y003580D01*
X035987Y003612D01*
X036020Y003641D01*
X036056Y003667D01*
X036094Y003689D01*
X036134Y003708D01*
X036175Y003724D01*
X036218Y003736D01*
X036261Y003744D01*
X036305Y003748D01*
X036349Y003748D01*
X036393Y003744D01*
X036436Y003736D01*
X036479Y003724D01*
X036520Y003708D01*
X036560Y003689D01*
X036598Y003667D01*
X036634Y003641D01*
X036667Y003612D01*
X036698Y003580D01*
X036725Y003545D01*
X036749Y003508D01*
X036770Y003469D01*
X036788Y003429D01*
X036801Y003387D01*
X036811Y003344D01*
X036817Y003300D01*
X036819Y003256D01*
X036817Y003212D01*
X036811Y003168D01*
X036801Y003125D01*
X036788Y003083D01*
X036770Y003043D01*
X036749Y003004D01*
X036725Y002967D01*
X036698Y002932D01*
X036667Y002900D01*
X036634Y002871D01*
X036598Y002845D01*
X036560Y002823D01*
X036520Y002804D01*
X036479Y002788D01*
X036436Y002776D01*
X036393Y002768D01*
X036349Y002764D01*
X036305Y002764D01*
X036261Y002768D01*
X036218Y002776D01*
X036175Y002788D01*
X036134Y002804D01*
X036094Y002823D01*
X036056Y002845D01*
X036020Y002871D01*
X035987Y002900D01*
X035956Y002932D01*
X035929Y002967D01*
X035905Y003004D01*
X035884Y003043D01*
X035866Y003083D01*
X035853Y003125D01*
X035843Y003168D01*
X035837Y003212D01*
X035835Y003256D01*
X020480Y001484D02*
X020482Y001528D01*
X020488Y001572D01*
X020498Y001615D01*
X020511Y001657D01*
X020529Y001697D01*
X020550Y001736D01*
X020574Y001773D01*
X020601Y001808D01*
X020632Y001840D01*
X020665Y001869D01*
X020701Y001895D01*
X020739Y001917D01*
X020779Y001936D01*
X020820Y001952D01*
X020863Y001964D01*
X020906Y001972D01*
X020950Y001976D01*
X020994Y001976D01*
X021038Y001972D01*
X021081Y001964D01*
X021124Y001952D01*
X021165Y001936D01*
X021205Y001917D01*
X021243Y001895D01*
X021279Y001869D01*
X021312Y001840D01*
X021343Y001808D01*
X021370Y001773D01*
X021394Y001736D01*
X021415Y001697D01*
X021433Y001657D01*
X021446Y001615D01*
X021456Y001572D01*
X021462Y001528D01*
X021464Y001484D01*
X021462Y001440D01*
X021456Y001396D01*
X021446Y001353D01*
X021433Y001311D01*
X021415Y001271D01*
X021394Y001232D01*
X021370Y001195D01*
X021343Y001160D01*
X021312Y001128D01*
X021279Y001099D01*
X021243Y001073D01*
X021205Y001051D01*
X021165Y001032D01*
X021124Y001016D01*
X021081Y001004D01*
X021038Y000996D01*
X020994Y000992D01*
X020950Y000992D01*
X020906Y000996D01*
X020863Y001004D01*
X020820Y001016D01*
X020779Y001032D01*
X020739Y001051D01*
X020701Y001073D01*
X020665Y001099D01*
X020632Y001128D01*
X020601Y001160D01*
X020574Y001195D01*
X020550Y001232D01*
X020529Y001271D01*
X020511Y001311D01*
X020498Y001353D01*
X020488Y001396D01*
X020482Y001440D01*
X020480Y001484D01*
X018610Y001484D02*
X018612Y001532D01*
X018618Y001580D01*
X018628Y001627D01*
X018641Y001673D01*
X018659Y001718D01*
X018679Y001762D01*
X018704Y001804D01*
X018732Y001843D01*
X018762Y001880D01*
X018796Y001914D01*
X018833Y001946D01*
X018871Y001975D01*
X018912Y002000D01*
X018955Y002022D01*
X019000Y002040D01*
X019046Y002054D01*
X019093Y002065D01*
X019141Y002072D01*
X019189Y002075D01*
X019237Y002074D01*
X019285Y002069D01*
X019333Y002060D01*
X019379Y002048D01*
X019424Y002031D01*
X019468Y002011D01*
X019510Y001988D01*
X019550Y001961D01*
X019588Y001931D01*
X019623Y001898D01*
X019655Y001862D01*
X019685Y001824D01*
X019711Y001783D01*
X019733Y001740D01*
X019753Y001696D01*
X019768Y001651D01*
X019780Y001604D01*
X019788Y001556D01*
X019792Y001508D01*
X019792Y001460D01*
X019788Y001412D01*
X019780Y001364D01*
X019768Y001317D01*
X019753Y001272D01*
X019733Y001228D01*
X019711Y001185D01*
X019685Y001144D01*
X019655Y001106D01*
X019623Y001070D01*
X019588Y001037D01*
X019550Y001007D01*
X019510Y000980D01*
X019468Y000957D01*
X019424Y000937D01*
X019379Y000920D01*
X019333Y000908D01*
X019285Y000899D01*
X019237Y000894D01*
X019189Y000893D01*
X019141Y000896D01*
X019093Y000903D01*
X019046Y000914D01*
X019000Y000928D01*
X018955Y000946D01*
X018912Y000968D01*
X018871Y000993D01*
X018833Y001022D01*
X018796Y001054D01*
X018762Y001088D01*
X018732Y001125D01*
X018704Y001164D01*
X018679Y001206D01*
X018659Y001250D01*
X018641Y001295D01*
X018628Y001341D01*
X018618Y001388D01*
X018612Y001436D01*
X018610Y001484D01*
D11*
X016546Y002110D02*
X016359Y002110D01*
X016546Y002297D01*
X016546Y002344D01*
X016500Y002390D01*
X016406Y002390D01*
X016359Y002344D01*
X015994Y002250D02*
X015994Y002110D01*
X015994Y002250D02*
X015947Y002297D01*
X015807Y002297D01*
X015807Y002110D01*
X015718Y002157D02*
X015718Y002250D01*
X015671Y002297D01*
X015577Y002297D01*
X015531Y002250D01*
X015531Y002157D01*
X015577Y002110D01*
X015671Y002110D01*
X015718Y002157D01*
X015440Y002110D02*
X015393Y002157D01*
X015393Y002344D01*
X015347Y002297D02*
X015440Y002297D01*
X015256Y002297D02*
X015162Y002297D01*
X015209Y002344D02*
X015209Y002157D01*
X015256Y002110D01*
X015073Y002110D02*
X015073Y002297D01*
X014886Y002297D02*
X014886Y002157D01*
X014933Y002110D01*
X015073Y002110D01*
X014797Y002157D02*
X014750Y002110D01*
X014610Y002110D01*
X014610Y002390D01*
X014750Y002390D01*
X014797Y002344D01*
X014797Y002297D01*
X014750Y002250D01*
X014610Y002250D01*
X014750Y002250D02*
X014797Y002203D01*
X014797Y002157D01*
X014710Y004610D02*
X014897Y004610D01*
X014986Y004610D02*
X015173Y004610D01*
X015262Y004610D02*
X015403Y004610D01*
X015449Y004657D01*
X015449Y004844D01*
X015403Y004890D01*
X015262Y004890D01*
X015262Y004610D01*
X015080Y004750D02*
X014986Y004750D01*
X014986Y004890D02*
X014986Y004610D01*
X014710Y004610D02*
X014710Y004890D01*
X014986Y004890D02*
X015173Y004890D01*
X015815Y004844D02*
X015862Y004890D01*
X015955Y004890D01*
X016002Y004844D01*
X016002Y004797D01*
X015815Y004610D01*
X016002Y004610D01*
X006646Y002010D02*
X006459Y002010D01*
X006553Y002010D02*
X006553Y002290D01*
X006459Y002197D01*
X006094Y002150D02*
X006094Y002010D01*
X006094Y002150D02*
X006047Y002197D01*
X005907Y002197D01*
X005907Y002010D01*
X005818Y002057D02*
X005771Y002010D01*
X005677Y002010D01*
X005631Y002057D01*
X005631Y002150D01*
X005677Y002197D01*
X005771Y002197D01*
X005818Y002150D01*
X005818Y002057D01*
X005540Y002010D02*
X005493Y002057D01*
X005493Y002244D01*
X005447Y002197D02*
X005540Y002197D01*
X005356Y002197D02*
X005262Y002197D01*
X005309Y002244D02*
X005309Y002057D01*
X005356Y002010D01*
X005173Y002010D02*
X005173Y002197D01*
X004986Y002197D02*
X004986Y002057D01*
X005033Y002010D01*
X005173Y002010D01*
X004897Y002057D02*
X004850Y002010D01*
X004710Y002010D01*
X004710Y002290D01*
X004850Y002290D01*
X004897Y002244D01*
X004897Y002197D01*
X004850Y002150D01*
X004710Y002150D01*
X004850Y002150D02*
X004897Y002103D01*
X004897Y002057D01*
X004910Y005610D02*
X005097Y005610D01*
X005186Y005610D02*
X005373Y005610D01*
X005462Y005610D02*
X005603Y005610D01*
X005649Y005657D01*
X005649Y005844D01*
X005603Y005890D01*
X005462Y005890D01*
X005462Y005610D01*
X005280Y005750D02*
X005186Y005750D01*
X005186Y005890D02*
X005186Y005610D01*
X004910Y005610D02*
X004910Y005890D01*
X005186Y005890D02*
X005373Y005890D01*
X006015Y005797D02*
X006108Y005890D01*
X006108Y005610D01*
X006015Y005610D02*
X006202Y005610D01*
X005994Y011910D02*
X005994Y012050D01*
X005947Y012097D01*
X005807Y012097D01*
X005807Y011910D01*
X005718Y011957D02*
X005718Y012050D01*
X005671Y012097D01*
X005577Y012097D01*
X005531Y012050D01*
X005531Y011957D01*
X005577Y011910D01*
X005671Y011910D01*
X005718Y011957D01*
X005440Y011910D02*
X005393Y011957D01*
X005393Y012144D01*
X005347Y012097D02*
X005440Y012097D01*
X005256Y012097D02*
X005162Y012097D01*
X005209Y012144D02*
X005209Y011957D01*
X005256Y011910D01*
X005073Y011910D02*
X005073Y012097D01*
X004886Y012097D02*
X004886Y011957D01*
X004933Y011910D01*
X005073Y011910D01*
X004797Y011957D02*
X004797Y012003D01*
X004750Y012050D01*
X004610Y012050D01*
X004610Y011910D02*
X004610Y012190D01*
X004750Y012190D01*
X004797Y012144D01*
X004797Y012097D01*
X004750Y012050D01*
X004797Y011957D02*
X004750Y011910D01*
X004610Y011910D01*
X006359Y012050D02*
X006546Y012050D01*
X006500Y011910D02*
X006500Y012190D01*
X006359Y012050D01*
X005755Y015010D02*
X005755Y015290D01*
X005615Y015150D01*
X005802Y015150D01*
X005249Y015057D02*
X005249Y015244D01*
X005203Y015290D01*
X005062Y015290D01*
X005062Y015010D01*
X005203Y015010D01*
X005249Y015057D01*
X004973Y015010D02*
X004786Y015010D01*
X004786Y015290D01*
X004973Y015290D01*
X004880Y015150D02*
X004786Y015150D01*
X004697Y015010D02*
X004510Y015010D01*
X004510Y015290D01*
X014410Y015210D02*
X014597Y015210D01*
X014686Y015210D02*
X014873Y015210D01*
X014962Y015210D02*
X015103Y015210D01*
X015149Y015257D01*
X015149Y015444D01*
X015103Y015490D01*
X014962Y015490D01*
X014962Y015210D01*
X014780Y015350D02*
X014686Y015350D01*
X014686Y015490D02*
X014686Y015210D01*
X014410Y015210D02*
X014410Y015490D01*
X014686Y015490D02*
X014873Y015490D01*
X015515Y015444D02*
X015562Y015490D01*
X015655Y015490D01*
X015702Y015444D01*
X015702Y015397D01*
X015655Y015350D01*
X015702Y015303D01*
X015702Y015257D01*
X015655Y015210D01*
X015562Y015210D01*
X015515Y015257D01*
X015608Y015350D02*
X015655Y015350D01*
X015493Y012044D02*
X015493Y011857D01*
X015540Y011810D01*
X015631Y011857D02*
X015677Y011810D01*
X015771Y011810D01*
X015818Y011857D01*
X015818Y011950D01*
X015771Y011997D01*
X015677Y011997D01*
X015631Y011950D01*
X015631Y011857D01*
X015540Y011997D02*
X015447Y011997D01*
X015356Y011997D02*
X015262Y011997D01*
X015309Y012044D02*
X015309Y011857D01*
X015356Y011810D01*
X015173Y011810D02*
X015173Y011997D01*
X014986Y011997D02*
X014986Y011857D01*
X015033Y011810D01*
X015173Y011810D01*
X014897Y011857D02*
X014850Y011810D01*
X014710Y011810D01*
X014710Y012090D01*
X014850Y012090D01*
X014897Y012044D01*
X014897Y011997D01*
X014850Y011950D01*
X014710Y011950D01*
X014850Y011950D02*
X014897Y011903D01*
X014897Y011857D01*
X015907Y011810D02*
X015907Y011997D01*
X016047Y011997D01*
X016094Y011950D01*
X016094Y011810D01*
X016459Y011857D02*
X016506Y011810D01*
X016600Y011810D01*
X016646Y011857D01*
X016646Y011903D01*
X016600Y011950D01*
X016553Y011950D01*
X016600Y011950D02*
X016646Y011997D01*
X016646Y012044D01*
X016600Y012090D01*
X016506Y012090D01*
X016459Y012044D01*
D12*
X002469Y002862D02*
X002469Y000500D01*
X035933Y000500D01*
X035933Y002469D01*
X037114Y002469D01*
X037114Y016248D01*
X035933Y016248D01*
X035933Y018217D01*
X020185Y018217D01*
X020185Y020185D01*
X002469Y020185D01*
X002469Y017823D01*
X000500Y017823D01*
X000500Y002862D01*
X002469Y002862D01*
X020185Y000500D02*
X020185Y018217D01*
X022875Y011000D02*
X022625Y010750D01*
X022625Y010250D01*
X022875Y010000D01*
X023375Y010000D01*
X023625Y010250D01*
X023875Y010000D01*
X024375Y010000D01*
X024625Y010250D01*
X024875Y010000D01*
X025375Y010000D01*
X025625Y010250D01*
X025875Y010000D01*
X026375Y010000D01*
X026625Y010250D01*
X026875Y010000D01*
X027375Y010000D01*
X027625Y010250D01*
X027875Y010000D01*
X028375Y010000D01*
X028625Y010250D01*
X028875Y010000D01*
X029375Y010000D01*
X029625Y010250D01*
X029875Y010000D01*
X030375Y010000D01*
X030625Y010250D01*
X030875Y010000D01*
X031375Y010000D01*
X031625Y010250D01*
X031875Y010000D01*
X032375Y010000D01*
X032625Y010250D01*
X032875Y010000D01*
X033375Y010000D01*
X033625Y010250D01*
X033875Y010000D01*
X034375Y010000D01*
X034625Y010250D01*
X034625Y010750D01*
X034375Y011000D01*
X033875Y011000D01*
X033625Y010750D01*
X033375Y011000D01*
X032875Y011000D01*
X032625Y010750D01*
X032375Y011000D01*
X031875Y011000D01*
X031625Y010750D01*
X031375Y011000D01*
X030875Y011000D01*
X030625Y010750D01*
X030375Y011000D01*
X029875Y011000D01*
X029625Y010750D01*
X029375Y011000D01*
X028875Y011000D01*
X028625Y010750D01*
X028375Y011000D01*
X027875Y011000D01*
X027625Y010750D01*
X027375Y011000D01*
X026875Y011000D01*
X026625Y010750D01*
X026375Y011000D01*
X025875Y011000D01*
X025625Y010750D01*
X025375Y011000D01*
X024875Y011000D01*
X024625Y010750D01*
X024375Y011000D01*
X023875Y011000D01*
X023625Y010750D01*
X023375Y011000D01*
X022875Y011000D01*
X022875Y001700D02*
X022625Y001450D01*
X022625Y000950D01*
X022875Y000700D01*
X023375Y000700D01*
X023625Y000950D01*
X023875Y000700D01*
X024375Y000700D01*
X024625Y000950D01*
X024875Y000700D01*
X025375Y000700D01*
X025625Y000950D01*
X025875Y000700D01*
X026375Y000700D01*
X026625Y000950D01*
X026875Y000700D01*
X027375Y000700D01*
X027625Y000950D01*
X027875Y000700D01*
X028375Y000700D01*
X028625Y000950D01*
X028875Y000700D01*
X029375Y000700D01*
X029625Y000950D01*
X029875Y000700D01*
X030375Y000700D01*
X030625Y000950D01*
X030875Y000700D01*
X031375Y000700D01*
X031625Y000950D01*
X031875Y000700D01*
X032375Y000700D01*
X032625Y000950D01*
X032875Y000700D01*
X033375Y000700D01*
X033625Y000950D01*
X033875Y000700D01*
X034375Y000700D01*
X034625Y000950D01*
X034625Y001450D01*
X034375Y001700D01*
X033875Y001700D01*
X033625Y001450D01*
X033375Y001700D01*
X032875Y001700D01*
X032625Y001450D01*
X032375Y001700D01*
X031875Y001700D01*
X031625Y001450D01*
X031375Y001700D01*
X030875Y001700D01*
X030625Y001450D01*
X030375Y001700D01*
X029875Y001700D01*
X029625Y001450D01*
X029375Y001700D01*
X028875Y001700D01*
X028625Y001450D01*
X028375Y001700D01*
X027875Y001700D01*
X027625Y001450D01*
X027375Y001700D01*
X026875Y001700D01*
X026625Y001450D01*
X026375Y001700D01*
X025875Y001700D01*
X025625Y001450D01*
X025375Y001700D01*
X024875Y001700D01*
X024625Y001450D01*
X024375Y001700D01*
X023875Y001700D01*
X023625Y001450D01*
X023375Y001700D01*
X022875Y001700D01*
D13*
X019850Y002650D02*
X019850Y002850D01*
X019850Y002650D02*
X019650Y002650D01*
X019150Y002650D02*
X018950Y002650D01*
X018950Y002850D01*
X018950Y003350D02*
X018950Y003550D01*
X019150Y003550D01*
X019150Y003650D02*
X018950Y003650D01*
X018950Y003850D01*
X019650Y003650D02*
X019850Y003650D01*
X019850Y003850D01*
X019850Y003550D02*
X019650Y003550D01*
X019850Y003550D02*
X019850Y003350D01*
X019850Y004350D02*
X019850Y004550D01*
X019650Y004550D01*
X019650Y004650D02*
X019850Y004650D01*
X019850Y004850D01*
X019150Y004650D02*
X018950Y004650D01*
X018950Y004850D01*
X018950Y004550D02*
X018950Y004350D01*
X018950Y004550D02*
X019150Y004550D01*
X018950Y005350D02*
X018950Y005550D01*
X019150Y005550D01*
X019150Y005650D02*
X018950Y005650D01*
X018950Y005850D01*
X019650Y005650D02*
X019850Y005650D01*
X019850Y005850D01*
X019850Y005550D02*
X019650Y005550D01*
X019850Y005550D02*
X019850Y005350D01*
X019850Y006350D02*
X019850Y006550D01*
X019650Y006550D01*
X019150Y006550D02*
X018950Y006550D01*
X018950Y006350D01*
X018950Y007950D02*
X019150Y007950D01*
X018950Y007950D02*
X018950Y008150D01*
X018950Y008650D02*
X018950Y008850D01*
X019150Y008850D01*
X019150Y008950D02*
X018950Y008950D01*
X018950Y009150D01*
X018950Y009650D02*
X018950Y009850D01*
X019150Y009850D01*
X019150Y009950D02*
X018950Y009950D01*
X018950Y010150D01*
X019650Y009950D02*
X019850Y009950D01*
X019850Y010150D01*
X019850Y009850D02*
X019650Y009850D01*
X019850Y009850D02*
X019850Y009650D01*
X019850Y009150D02*
X019850Y008950D01*
X019650Y008950D01*
X019650Y008850D02*
X019850Y008850D01*
X019850Y008650D01*
X019850Y008150D02*
X019850Y007950D01*
X019650Y007950D01*
X019850Y010650D02*
X019850Y010850D01*
X019650Y010850D01*
X019650Y010950D02*
X019850Y010950D01*
X019850Y011150D01*
X019150Y010950D02*
X018950Y010950D01*
X018950Y011150D01*
X018950Y010850D02*
X018950Y010650D01*
X018950Y010850D02*
X019150Y010850D01*
X018950Y011650D02*
X018950Y011850D01*
X019150Y011850D01*
X019150Y011950D02*
X018950Y011950D01*
X018950Y012150D01*
X019650Y011950D02*
X019850Y011950D01*
X019850Y012150D01*
X019850Y011850D02*
X019650Y011850D01*
X019850Y011850D02*
X019850Y011650D01*
X019850Y012650D02*
X019850Y012850D01*
X019650Y012850D01*
X019150Y012850D02*
X018950Y012850D01*
X018950Y012650D01*
X013731Y010700D02*
X013731Y010330D01*
X013237Y010330D02*
X013237Y011071D01*
X013360Y010824D02*
X013607Y010824D01*
X013731Y010700D01*
X013360Y010824D02*
X013237Y010700D01*
X012994Y010824D02*
X012624Y010824D01*
X012500Y010700D01*
X012500Y010453D01*
X012624Y010330D01*
X012994Y010330D01*
X012256Y010330D02*
X012133Y010453D01*
X012133Y010947D01*
X012256Y010824D02*
X012009Y010824D01*
X011642Y010824D02*
X011642Y010330D01*
X011765Y010330D02*
X011518Y010330D01*
X011275Y010453D02*
X011275Y010824D01*
X011518Y010824D02*
X011642Y010824D01*
X011642Y011071D02*
X011642Y011194D01*
X010781Y010824D02*
X010781Y010453D01*
X010905Y010330D01*
X011028Y010453D01*
X011152Y010330D01*
X011275Y010453D01*
X010539Y010453D02*
X010415Y010330D01*
X010168Y010330D01*
X010045Y010453D01*
X009801Y010330D02*
X009677Y010453D01*
X009677Y010947D01*
X009554Y010824D02*
X009801Y010824D01*
X010045Y010824D02*
X010168Y010700D01*
X010415Y010700D01*
X010539Y010577D01*
X010539Y010453D01*
X010539Y010947D02*
X010415Y011071D01*
X010168Y011071D01*
X010045Y010947D01*
X010045Y010824D01*
X009310Y010824D02*
X009187Y010824D01*
X008940Y010577D01*
X008697Y010577D02*
X008327Y010577D01*
X008203Y010453D01*
X008327Y010330D01*
X008697Y010330D01*
X008697Y010700D01*
X008574Y010824D01*
X008327Y010824D01*
X007960Y010700D02*
X007960Y010330D01*
X007714Y010330D02*
X007714Y010700D01*
X007837Y010824D01*
X007960Y010700D01*
X007714Y010700D02*
X007590Y010824D01*
X007467Y010824D01*
X007467Y010330D01*
X007224Y010453D02*
X007100Y010330D01*
X006853Y010330D01*
X006730Y010453D01*
X006853Y010700D02*
X007100Y010700D01*
X007224Y010577D01*
X007224Y010453D01*
X006853Y010700D02*
X006730Y010824D01*
X006730Y010947D01*
X006853Y011071D01*
X007100Y011071D01*
X007224Y010947D01*
X008940Y010824D02*
X008940Y010330D01*
X025630Y004747D02*
X025630Y004624D01*
X025753Y004500D01*
X026000Y004500D01*
X026124Y004377D01*
X026124Y004253D01*
X026000Y004130D01*
X025753Y004130D01*
X025630Y004253D01*
X026367Y004130D02*
X026367Y004624D01*
X026490Y004624D01*
X026614Y004500D01*
X026737Y004624D01*
X026860Y004500D01*
X026860Y004130D01*
X026614Y004130D02*
X026614Y004500D01*
X026124Y004747D02*
X026000Y004871D01*
X025753Y004871D01*
X025630Y004747D01*
X027103Y004253D02*
X027227Y004377D01*
X027597Y004377D01*
X027597Y004500D02*
X027474Y004624D01*
X027227Y004624D01*
X027597Y004500D02*
X027597Y004130D01*
X027227Y004130D01*
X027103Y004253D01*
X027840Y004130D02*
X027840Y004624D01*
X027840Y004377D02*
X028087Y004624D01*
X028210Y004624D01*
X028454Y004624D02*
X028701Y004624D01*
X028577Y004747D02*
X028577Y004253D01*
X028701Y004130D01*
X028945Y004253D02*
X029068Y004130D01*
X029315Y004130D01*
X029439Y004253D01*
X029439Y004377D01*
X029315Y004500D01*
X029068Y004500D01*
X028945Y004624D01*
X028945Y004747D01*
X029068Y004871D01*
X029315Y004871D01*
X029439Y004747D01*
X029681Y004624D02*
X029681Y004253D01*
X029805Y004130D01*
X029928Y004253D01*
X030052Y004130D01*
X030175Y004253D01*
X030175Y004624D01*
X030418Y004624D02*
X030542Y004624D01*
X030542Y004130D01*
X030665Y004130D02*
X030418Y004130D01*
X031033Y004253D02*
X031156Y004130D01*
X031033Y004253D02*
X031033Y004747D01*
X031156Y004624D02*
X030909Y004624D01*
X030542Y004871D02*
X030542Y004994D01*
X031400Y004500D02*
X031400Y004253D01*
X031524Y004130D01*
X031894Y004130D01*
X032137Y004130D02*
X032137Y004871D01*
X032260Y004624D02*
X032507Y004624D01*
X032631Y004500D01*
X032631Y004130D01*
X032137Y004500D02*
X032260Y004624D01*
X031894Y004624D02*
X031524Y004624D01*
X031400Y004500D01*
D14*
X014762Y006058D02*
X014764Y006071D01*
X014769Y006083D01*
X014778Y006094D01*
X014788Y006102D01*
X014801Y006106D01*
X014814Y006107D01*
X014827Y006104D01*
X014839Y006098D01*
X014849Y006089D01*
X014856Y006078D01*
X014860Y006065D01*
X014860Y006051D01*
X014856Y006038D01*
X014849Y006027D01*
X014839Y006018D01*
X014827Y006012D01*
X014814Y006009D01*
X014801Y006010D01*
X014788Y006014D01*
X014778Y006022D01*
X014769Y006033D01*
X014764Y006045D01*
X014762Y006058D01*
X004920Y006058D02*
X004922Y006071D01*
X004927Y006083D01*
X004936Y006094D01*
X004946Y006102D01*
X004959Y006106D01*
X004972Y006107D01*
X004985Y006104D01*
X004997Y006098D01*
X005007Y006089D01*
X005014Y006078D01*
X005018Y006065D01*
X005018Y006051D01*
X005014Y006038D01*
X005007Y006027D01*
X004997Y006018D01*
X004985Y006012D01*
X004972Y006009D01*
X004959Y006010D01*
X004946Y006014D01*
X004936Y006022D01*
X004927Y006033D01*
X004922Y006045D01*
X004920Y006058D01*
X004920Y015901D02*
X004922Y015914D01*
X004927Y015926D01*
X004936Y015937D01*
X004946Y015945D01*
X004959Y015949D01*
X004972Y015950D01*
X004985Y015947D01*
X004997Y015941D01*
X005007Y015932D01*
X005014Y015921D01*
X005018Y015908D01*
X005018Y015894D01*
X005014Y015881D01*
X005007Y015870D01*
X004997Y015861D01*
X004985Y015855D01*
X004972Y015852D01*
X004959Y015853D01*
X004946Y015857D01*
X004936Y015865D01*
X004927Y015876D01*
X004922Y015888D01*
X004920Y015901D01*
X014762Y015901D02*
X014764Y015914D01*
X014769Y015926D01*
X014778Y015937D01*
X014788Y015945D01*
X014801Y015949D01*
X014814Y015950D01*
X014827Y015947D01*
X014839Y015941D01*
X014849Y015932D01*
X014856Y015921D01*
X014860Y015908D01*
X014860Y015894D01*
X014856Y015881D01*
X014849Y015870D01*
X014839Y015861D01*
X014827Y015855D01*
X014814Y015852D01*
X014801Y015853D01*
X014788Y015857D01*
X014778Y015865D01*
X014769Y015876D01*
X014764Y015888D01*
X014762Y015901D01*
D15*
X014276Y016150D02*
X014276Y016250D01*
X014296Y016250D01*
X014296Y016248D01*
X016245Y016248D01*
X016245Y016157D01*
X016252Y014369D02*
X016252Y014280D01*
X014296Y014280D01*
X014296Y014281D01*
X014276Y014281D01*
X014276Y014388D01*
X006409Y014280D02*
X006409Y014369D01*
X006409Y014280D02*
X004453Y014280D01*
X004453Y014281D01*
X004433Y014281D01*
X004433Y014388D01*
X004433Y016150D02*
X004433Y016250D01*
X004453Y016250D01*
X004453Y016248D01*
X006402Y016248D01*
X006402Y016157D01*
X006402Y006405D02*
X004453Y006405D01*
X004453Y006407D01*
X004433Y006407D01*
X004433Y006307D01*
X006402Y006314D02*
X006402Y006405D01*
X006409Y004526D02*
X006409Y004437D01*
X004453Y004437D01*
X004453Y004438D01*
X004433Y004438D01*
X004433Y004545D01*
X014276Y004545D02*
X014276Y004438D01*
X014296Y004438D01*
X014296Y004437D01*
X016252Y004437D01*
X016252Y004526D01*
X016245Y006314D02*
X016245Y006405D01*
X014296Y006405D01*
X014296Y006407D01*
X014276Y006407D01*
X014276Y006307D01*
M02*
