%
M48
M72
T01C0.0236
T02C0.0320
T03C0.0350
T04C0.0354
T05C0.0400
T06C0.0984
T07C0.1181
%
T01
X3621Y15650
X2621Y16450
X13524Y15650
X12524Y16450
X3682Y5857
X2682Y6657
X13524Y5807
X12524Y6607
X5900Y5900
X15700Y6700
X12100Y8600
X2200Y8000
X4100Y5200
X14900Y4200
X8700Y6300
X8500Y8100
X8100Y13300
X17100Y18300
X15900Y16500
X6700Y15500
X14500Y14200
X15800Y4200
X5900Y4200
X15800Y14000
X18500Y7100
X6100Y14100
X4700Y14000
X4900Y16600
X14700Y16400
X4800Y6700
X14800Y5500
X3700Y9300
X12000Y9600
X11500Y15400
X30900Y6000
X9200Y18500
X7900Y18500
T02
X22500Y16000
X23500Y16000
X24500Y16000
X25500Y16000
X26500Y16000
X27500Y16000
X28500Y16000
X29500Y16000
X30500Y16000
X31500Y16000
X32500Y16000
X33500Y16000
X34500Y16000
X35500Y16000
X35500Y13000
X34500Y13000
X33500Y13000
X32500Y13000
X31500Y13000
X30500Y13000
X29500Y13000
X28500Y13000
X27500Y13000
X26500Y13000
X25500Y13000
X24500Y13000
X23500Y13000
X22500Y13000
T03
X23125Y1200
X24125Y1200
X25125Y1200
X26125Y1200
X27125Y1200
X28125Y1200
X29125Y1200
X30125Y1200
X31125Y1200
X32125Y1200
X33125Y1200
X34125Y1200
X23125Y10500
X24125Y10500
X25125Y10500
X26125Y10500
X27125Y10500
X28125Y10500
X29125Y10500
X30125Y10500
X31125Y10500
X32125Y10500
X33125Y10500
X34125Y10500
T04
X32100Y7000
X36100Y7000
X32100Y8200
X36100Y8200
X23900Y12000
X23900Y8000
X24900Y12000
X24900Y8000
X25900Y12000
X25900Y8000
X26900Y12000
X26900Y8000
X27900Y12000
X27900Y8000
X28900Y12000
X28900Y8000
T05
X19400Y9400
X19400Y10400
X19400Y11400
X19400Y12400
X19400Y5100
X19400Y4100
X19400Y6100
X19400Y3100
X20900Y16400
X20900Y15400
X20900Y14400
X20900Y13400
X20900Y12400
X20900Y11400
X34125Y2400
X33125Y2400
X32125Y2400
X31125Y2400
X30125Y2400
X29125Y2400
X28125Y2400
X27125Y2400
X26125Y2400
X25125Y2400
X24125Y2400
X23125Y2400
X23125Y9400
X24125Y9400
X25125Y9400
X26125Y9400
X27125Y9400
X28125Y9400
X29125Y9400
X30125Y9400
X31125Y9400
X32125Y9400
X33125Y9400
X34125Y9400
X19400Y8400
X20900Y8400
X20900Y7400
X23800Y17300
X24800Y17300
X20900Y10400
X20900Y9400
X20900Y4100
X20900Y5100
X20900Y6100
X23900Y7100
X24900Y7100
X25900Y7100
X26900Y7100
X27900Y7100
X28900Y7100
T06
X35146Y17232
X36327Y3256
X22154Y17429
X20972Y1484
T07
X5421Y10343
X10343Y15264
X15264Y10343
X10343Y5421
X3256Y1484
X1484Y17035
X19201Y19201
X19201Y1484
M30
