G75*
%MOIN*%
%OFA0B0*%
%FSLAX24Y24*%
%IPPOS*%
%LPD*%
%AMOC8*
5,1,8,0,0,1.08239X$1,22.5*
%
%ADD10C,0.0000*%
%ADD11C,0.0040*%
%ADD12C,0.0080*%
%ADD13C,0.0050*%
%ADD14C,0.0060*%
%ADD15C,0.0120*%
D10*
X002665Y001484D02*
X002667Y001532D01*
X002673Y001580D01*
X002683Y001627D01*
X002696Y001673D01*
X002714Y001718D01*
X002734Y001762D01*
X002759Y001804D01*
X002787Y001843D01*
X002817Y001880D01*
X002851Y001914D01*
X002888Y001946D01*
X002926Y001975D01*
X002967Y002000D01*
X003010Y002022D01*
X003055Y002040D01*
X003101Y002054D01*
X003148Y002065D01*
X003196Y002072D01*
X003244Y002075D01*
X003292Y002074D01*
X003340Y002069D01*
X003388Y002060D01*
X003434Y002048D01*
X003479Y002031D01*
X003523Y002011D01*
X003565Y001988D01*
X003605Y001961D01*
X003643Y001931D01*
X003678Y001898D01*
X003710Y001862D01*
X003740Y001824D01*
X003766Y001783D01*
X003788Y001740D01*
X003808Y001696D01*
X003823Y001651D01*
X003835Y001604D01*
X003843Y001556D01*
X003847Y001508D01*
X003847Y001460D01*
X003843Y001412D01*
X003835Y001364D01*
X003823Y001317D01*
X003808Y001272D01*
X003788Y001228D01*
X003766Y001185D01*
X003740Y001144D01*
X003710Y001106D01*
X003678Y001070D01*
X003643Y001037D01*
X003605Y001007D01*
X003565Y000980D01*
X003523Y000957D01*
X003479Y000937D01*
X003434Y000920D01*
X003388Y000908D01*
X003340Y000899D01*
X003292Y000894D01*
X003244Y000893D01*
X003196Y000896D01*
X003148Y000903D01*
X003101Y000914D01*
X003055Y000928D01*
X003010Y000946D01*
X002967Y000968D01*
X002926Y000993D01*
X002888Y001022D01*
X002851Y001054D01*
X002817Y001088D01*
X002787Y001125D01*
X002759Y001164D01*
X002734Y001206D01*
X002714Y001250D01*
X002696Y001295D01*
X002683Y001341D01*
X002673Y001388D01*
X002667Y001436D01*
X002665Y001484D01*
X009752Y005421D02*
X009754Y005469D01*
X009760Y005517D01*
X009770Y005564D01*
X009783Y005610D01*
X009801Y005655D01*
X009821Y005699D01*
X009846Y005741D01*
X009874Y005780D01*
X009904Y005817D01*
X009938Y005851D01*
X009975Y005883D01*
X010013Y005912D01*
X010054Y005937D01*
X010097Y005959D01*
X010142Y005977D01*
X010188Y005991D01*
X010235Y006002D01*
X010283Y006009D01*
X010331Y006012D01*
X010379Y006011D01*
X010427Y006006D01*
X010475Y005997D01*
X010521Y005985D01*
X010566Y005968D01*
X010610Y005948D01*
X010652Y005925D01*
X010692Y005898D01*
X010730Y005868D01*
X010765Y005835D01*
X010797Y005799D01*
X010827Y005761D01*
X010853Y005720D01*
X010875Y005677D01*
X010895Y005633D01*
X010910Y005588D01*
X010922Y005541D01*
X010930Y005493D01*
X010934Y005445D01*
X010934Y005397D01*
X010930Y005349D01*
X010922Y005301D01*
X010910Y005254D01*
X010895Y005209D01*
X010875Y005165D01*
X010853Y005122D01*
X010827Y005081D01*
X010797Y005043D01*
X010765Y005007D01*
X010730Y004974D01*
X010692Y004944D01*
X010652Y004917D01*
X010610Y004894D01*
X010566Y004874D01*
X010521Y004857D01*
X010475Y004845D01*
X010427Y004836D01*
X010379Y004831D01*
X010331Y004830D01*
X010283Y004833D01*
X010235Y004840D01*
X010188Y004851D01*
X010142Y004865D01*
X010097Y004883D01*
X010054Y004905D01*
X010013Y004930D01*
X009975Y004959D01*
X009938Y004991D01*
X009904Y005025D01*
X009874Y005062D01*
X009846Y005101D01*
X009821Y005143D01*
X009801Y005187D01*
X009783Y005232D01*
X009770Y005278D01*
X009760Y005325D01*
X009754Y005373D01*
X009752Y005421D01*
X004830Y010343D02*
X004832Y010391D01*
X004838Y010439D01*
X004848Y010486D01*
X004861Y010532D01*
X004879Y010577D01*
X004899Y010621D01*
X004924Y010663D01*
X004952Y010702D01*
X004982Y010739D01*
X005016Y010773D01*
X005053Y010805D01*
X005091Y010834D01*
X005132Y010859D01*
X005175Y010881D01*
X005220Y010899D01*
X005266Y010913D01*
X005313Y010924D01*
X005361Y010931D01*
X005409Y010934D01*
X005457Y010933D01*
X005505Y010928D01*
X005553Y010919D01*
X005599Y010907D01*
X005644Y010890D01*
X005688Y010870D01*
X005730Y010847D01*
X005770Y010820D01*
X005808Y010790D01*
X005843Y010757D01*
X005875Y010721D01*
X005905Y010683D01*
X005931Y010642D01*
X005953Y010599D01*
X005973Y010555D01*
X005988Y010510D01*
X006000Y010463D01*
X006008Y010415D01*
X006012Y010367D01*
X006012Y010319D01*
X006008Y010271D01*
X006000Y010223D01*
X005988Y010176D01*
X005973Y010131D01*
X005953Y010087D01*
X005931Y010044D01*
X005905Y010003D01*
X005875Y009965D01*
X005843Y009929D01*
X005808Y009896D01*
X005770Y009866D01*
X005730Y009839D01*
X005688Y009816D01*
X005644Y009796D01*
X005599Y009779D01*
X005553Y009767D01*
X005505Y009758D01*
X005457Y009753D01*
X005409Y009752D01*
X005361Y009755D01*
X005313Y009762D01*
X005266Y009773D01*
X005220Y009787D01*
X005175Y009805D01*
X005132Y009827D01*
X005091Y009852D01*
X005053Y009881D01*
X005016Y009913D01*
X004982Y009947D01*
X004952Y009984D01*
X004924Y010023D01*
X004899Y010065D01*
X004879Y010109D01*
X004861Y010154D01*
X004848Y010200D01*
X004838Y010247D01*
X004832Y010295D01*
X004830Y010343D01*
X009752Y015264D02*
X009754Y015312D01*
X009760Y015360D01*
X009770Y015407D01*
X009783Y015453D01*
X009801Y015498D01*
X009821Y015542D01*
X009846Y015584D01*
X009874Y015623D01*
X009904Y015660D01*
X009938Y015694D01*
X009975Y015726D01*
X010013Y015755D01*
X010054Y015780D01*
X010097Y015802D01*
X010142Y015820D01*
X010188Y015834D01*
X010235Y015845D01*
X010283Y015852D01*
X010331Y015855D01*
X010379Y015854D01*
X010427Y015849D01*
X010475Y015840D01*
X010521Y015828D01*
X010566Y015811D01*
X010610Y015791D01*
X010652Y015768D01*
X010692Y015741D01*
X010730Y015711D01*
X010765Y015678D01*
X010797Y015642D01*
X010827Y015604D01*
X010853Y015563D01*
X010875Y015520D01*
X010895Y015476D01*
X010910Y015431D01*
X010922Y015384D01*
X010930Y015336D01*
X010934Y015288D01*
X010934Y015240D01*
X010930Y015192D01*
X010922Y015144D01*
X010910Y015097D01*
X010895Y015052D01*
X010875Y015008D01*
X010853Y014965D01*
X010827Y014924D01*
X010797Y014886D01*
X010765Y014850D01*
X010730Y014817D01*
X010692Y014787D01*
X010652Y014760D01*
X010610Y014737D01*
X010566Y014717D01*
X010521Y014700D01*
X010475Y014688D01*
X010427Y014679D01*
X010379Y014674D01*
X010331Y014673D01*
X010283Y014676D01*
X010235Y014683D01*
X010188Y014694D01*
X010142Y014708D01*
X010097Y014726D01*
X010054Y014748D01*
X010013Y014773D01*
X009975Y014802D01*
X009938Y014834D01*
X009904Y014868D01*
X009874Y014905D01*
X009846Y014944D01*
X009821Y014986D01*
X009801Y015030D01*
X009783Y015075D01*
X009770Y015121D01*
X009760Y015168D01*
X009754Y015216D01*
X009752Y015264D01*
X000893Y017035D02*
X000895Y017083D01*
X000901Y017131D01*
X000911Y017178D01*
X000924Y017224D01*
X000942Y017269D01*
X000962Y017313D01*
X000987Y017355D01*
X001015Y017394D01*
X001045Y017431D01*
X001079Y017465D01*
X001116Y017497D01*
X001154Y017526D01*
X001195Y017551D01*
X001238Y017573D01*
X001283Y017591D01*
X001329Y017605D01*
X001376Y017616D01*
X001424Y017623D01*
X001472Y017626D01*
X001520Y017625D01*
X001568Y017620D01*
X001616Y017611D01*
X001662Y017599D01*
X001707Y017582D01*
X001751Y017562D01*
X001793Y017539D01*
X001833Y017512D01*
X001871Y017482D01*
X001906Y017449D01*
X001938Y017413D01*
X001968Y017375D01*
X001994Y017334D01*
X002016Y017291D01*
X002036Y017247D01*
X002051Y017202D01*
X002063Y017155D01*
X002071Y017107D01*
X002075Y017059D01*
X002075Y017011D01*
X002071Y016963D01*
X002063Y016915D01*
X002051Y016868D01*
X002036Y016823D01*
X002016Y016779D01*
X001994Y016736D01*
X001968Y016695D01*
X001938Y016657D01*
X001906Y016621D01*
X001871Y016588D01*
X001833Y016558D01*
X001793Y016531D01*
X001751Y016508D01*
X001707Y016488D01*
X001662Y016471D01*
X001616Y016459D01*
X001568Y016450D01*
X001520Y016445D01*
X001472Y016444D01*
X001424Y016447D01*
X001376Y016454D01*
X001329Y016465D01*
X001283Y016479D01*
X001238Y016497D01*
X001195Y016519D01*
X001154Y016544D01*
X001116Y016573D01*
X001079Y016605D01*
X001045Y016639D01*
X001015Y016676D01*
X000987Y016715D01*
X000962Y016757D01*
X000942Y016801D01*
X000924Y016846D01*
X000911Y016892D01*
X000901Y016939D01*
X000895Y016987D01*
X000893Y017035D01*
X014673Y010343D02*
X014675Y010391D01*
X014681Y010439D01*
X014691Y010486D01*
X014704Y010532D01*
X014722Y010577D01*
X014742Y010621D01*
X014767Y010663D01*
X014795Y010702D01*
X014825Y010739D01*
X014859Y010773D01*
X014896Y010805D01*
X014934Y010834D01*
X014975Y010859D01*
X015018Y010881D01*
X015063Y010899D01*
X015109Y010913D01*
X015156Y010924D01*
X015204Y010931D01*
X015252Y010934D01*
X015300Y010933D01*
X015348Y010928D01*
X015396Y010919D01*
X015442Y010907D01*
X015487Y010890D01*
X015531Y010870D01*
X015573Y010847D01*
X015613Y010820D01*
X015651Y010790D01*
X015686Y010757D01*
X015718Y010721D01*
X015748Y010683D01*
X015774Y010642D01*
X015796Y010599D01*
X015816Y010555D01*
X015831Y010510D01*
X015843Y010463D01*
X015851Y010415D01*
X015855Y010367D01*
X015855Y010319D01*
X015851Y010271D01*
X015843Y010223D01*
X015831Y010176D01*
X015816Y010131D01*
X015796Y010087D01*
X015774Y010044D01*
X015748Y010003D01*
X015718Y009965D01*
X015686Y009929D01*
X015651Y009896D01*
X015613Y009866D01*
X015573Y009839D01*
X015531Y009816D01*
X015487Y009796D01*
X015442Y009779D01*
X015396Y009767D01*
X015348Y009758D01*
X015300Y009753D01*
X015252Y009752D01*
X015204Y009755D01*
X015156Y009762D01*
X015109Y009773D01*
X015063Y009787D01*
X015018Y009805D01*
X014975Y009827D01*
X014934Y009852D01*
X014896Y009881D01*
X014859Y009913D01*
X014825Y009947D01*
X014795Y009984D01*
X014767Y010023D01*
X014742Y010065D01*
X014722Y010109D01*
X014704Y010154D01*
X014691Y010200D01*
X014681Y010247D01*
X014675Y010295D01*
X014673Y010343D01*
X021662Y017429D02*
X021664Y017473D01*
X021670Y017517D01*
X021680Y017560D01*
X021693Y017602D01*
X021711Y017642D01*
X021732Y017681D01*
X021756Y017718D01*
X021783Y017753D01*
X021814Y017785D01*
X021847Y017814D01*
X021883Y017840D01*
X021921Y017862D01*
X021961Y017881D01*
X022002Y017897D01*
X022045Y017909D01*
X022088Y017917D01*
X022132Y017921D01*
X022176Y017921D01*
X022220Y017917D01*
X022263Y017909D01*
X022306Y017897D01*
X022347Y017881D01*
X022387Y017862D01*
X022425Y017840D01*
X022461Y017814D01*
X022494Y017785D01*
X022525Y017753D01*
X022552Y017718D01*
X022576Y017681D01*
X022597Y017642D01*
X022615Y017602D01*
X022628Y017560D01*
X022638Y017517D01*
X022644Y017473D01*
X022646Y017429D01*
X022644Y017385D01*
X022638Y017341D01*
X022628Y017298D01*
X022615Y017256D01*
X022597Y017216D01*
X022576Y017177D01*
X022552Y017140D01*
X022525Y017105D01*
X022494Y017073D01*
X022461Y017044D01*
X022425Y017018D01*
X022387Y016996D01*
X022347Y016977D01*
X022306Y016961D01*
X022263Y016949D01*
X022220Y016941D01*
X022176Y016937D01*
X022132Y016937D01*
X022088Y016941D01*
X022045Y016949D01*
X022002Y016961D01*
X021961Y016977D01*
X021921Y016996D01*
X021883Y017018D01*
X021847Y017044D01*
X021814Y017073D01*
X021783Y017105D01*
X021756Y017140D01*
X021732Y017177D01*
X021711Y017216D01*
X021693Y017256D01*
X021680Y017298D01*
X021670Y017341D01*
X021664Y017385D01*
X021662Y017429D01*
X018610Y019201D02*
X018612Y019249D01*
X018618Y019297D01*
X018628Y019344D01*
X018641Y019390D01*
X018659Y019435D01*
X018679Y019479D01*
X018704Y019521D01*
X018732Y019560D01*
X018762Y019597D01*
X018796Y019631D01*
X018833Y019663D01*
X018871Y019692D01*
X018912Y019717D01*
X018955Y019739D01*
X019000Y019757D01*
X019046Y019771D01*
X019093Y019782D01*
X019141Y019789D01*
X019189Y019792D01*
X019237Y019791D01*
X019285Y019786D01*
X019333Y019777D01*
X019379Y019765D01*
X019424Y019748D01*
X019468Y019728D01*
X019510Y019705D01*
X019550Y019678D01*
X019588Y019648D01*
X019623Y019615D01*
X019655Y019579D01*
X019685Y019541D01*
X019711Y019500D01*
X019733Y019457D01*
X019753Y019413D01*
X019768Y019368D01*
X019780Y019321D01*
X019788Y019273D01*
X019792Y019225D01*
X019792Y019177D01*
X019788Y019129D01*
X019780Y019081D01*
X019768Y019034D01*
X019753Y018989D01*
X019733Y018945D01*
X019711Y018902D01*
X019685Y018861D01*
X019655Y018823D01*
X019623Y018787D01*
X019588Y018754D01*
X019550Y018724D01*
X019510Y018697D01*
X019468Y018674D01*
X019424Y018654D01*
X019379Y018637D01*
X019333Y018625D01*
X019285Y018616D01*
X019237Y018611D01*
X019189Y018610D01*
X019141Y018613D01*
X019093Y018620D01*
X019046Y018631D01*
X019000Y018645D01*
X018955Y018663D01*
X018912Y018685D01*
X018871Y018710D01*
X018833Y018739D01*
X018796Y018771D01*
X018762Y018805D01*
X018732Y018842D01*
X018704Y018881D01*
X018679Y018923D01*
X018659Y018967D01*
X018641Y019012D01*
X018628Y019058D01*
X018618Y019105D01*
X018612Y019153D01*
X018610Y019201D01*
X034654Y017232D02*
X034656Y017276D01*
X034662Y017320D01*
X034672Y017363D01*
X034685Y017405D01*
X034703Y017445D01*
X034724Y017484D01*
X034748Y017521D01*
X034775Y017556D01*
X034806Y017588D01*
X034839Y017617D01*
X034875Y017643D01*
X034913Y017665D01*
X034953Y017684D01*
X034994Y017700D01*
X035037Y017712D01*
X035080Y017720D01*
X035124Y017724D01*
X035168Y017724D01*
X035212Y017720D01*
X035255Y017712D01*
X035298Y017700D01*
X035339Y017684D01*
X035379Y017665D01*
X035417Y017643D01*
X035453Y017617D01*
X035486Y017588D01*
X035517Y017556D01*
X035544Y017521D01*
X035568Y017484D01*
X035589Y017445D01*
X035607Y017405D01*
X035620Y017363D01*
X035630Y017320D01*
X035636Y017276D01*
X035638Y017232D01*
X035636Y017188D01*
X035630Y017144D01*
X035620Y017101D01*
X035607Y017059D01*
X035589Y017019D01*
X035568Y016980D01*
X035544Y016943D01*
X035517Y016908D01*
X035486Y016876D01*
X035453Y016847D01*
X035417Y016821D01*
X035379Y016799D01*
X035339Y016780D01*
X035298Y016764D01*
X035255Y016752D01*
X035212Y016744D01*
X035168Y016740D01*
X035124Y016740D01*
X035080Y016744D01*
X035037Y016752D01*
X034994Y016764D01*
X034953Y016780D01*
X034913Y016799D01*
X034875Y016821D01*
X034839Y016847D01*
X034806Y016876D01*
X034775Y016908D01*
X034748Y016943D01*
X034724Y016980D01*
X034703Y017019D01*
X034685Y017059D01*
X034672Y017101D01*
X034662Y017144D01*
X034656Y017188D01*
X034654Y017232D01*
X035835Y003256D02*
X035837Y003300D01*
X035843Y003344D01*
X035853Y003387D01*
X035866Y003429D01*
X035884Y003469D01*
X035905Y003508D01*
X035929Y003545D01*
X035956Y003580D01*
X035987Y003612D01*
X036020Y003641D01*
X036056Y003667D01*
X036094Y003689D01*
X036134Y003708D01*
X036175Y003724D01*
X036218Y003736D01*
X036261Y003744D01*
X036305Y003748D01*
X036349Y003748D01*
X036393Y003744D01*
X036436Y003736D01*
X036479Y003724D01*
X036520Y003708D01*
X036560Y003689D01*
X036598Y003667D01*
X036634Y003641D01*
X036667Y003612D01*
X036698Y003580D01*
X036725Y003545D01*
X036749Y003508D01*
X036770Y003469D01*
X036788Y003429D01*
X036801Y003387D01*
X036811Y003344D01*
X036817Y003300D01*
X036819Y003256D01*
X036817Y003212D01*
X036811Y003168D01*
X036801Y003125D01*
X036788Y003083D01*
X036770Y003043D01*
X036749Y003004D01*
X036725Y002967D01*
X036698Y002932D01*
X036667Y002900D01*
X036634Y002871D01*
X036598Y002845D01*
X036560Y002823D01*
X036520Y002804D01*
X036479Y002788D01*
X036436Y002776D01*
X036393Y002768D01*
X036349Y002764D01*
X036305Y002764D01*
X036261Y002768D01*
X036218Y002776D01*
X036175Y002788D01*
X036134Y002804D01*
X036094Y002823D01*
X036056Y002845D01*
X036020Y002871D01*
X035987Y002900D01*
X035956Y002932D01*
X035929Y002967D01*
X035905Y003004D01*
X035884Y003043D01*
X035866Y003083D01*
X035853Y003125D01*
X035843Y003168D01*
X035837Y003212D01*
X035835Y003256D01*
X020480Y001484D02*
X020482Y001528D01*
X020488Y001572D01*
X020498Y001615D01*
X020511Y001657D01*
X020529Y001697D01*
X020550Y001736D01*
X020574Y001773D01*
X020601Y001808D01*
X020632Y001840D01*
X020665Y001869D01*
X020701Y001895D01*
X020739Y001917D01*
X020779Y001936D01*
X020820Y001952D01*
X020863Y001964D01*
X020906Y001972D01*
X020950Y001976D01*
X020994Y001976D01*
X021038Y001972D01*
X021081Y001964D01*
X021124Y001952D01*
X021165Y001936D01*
X021205Y001917D01*
X021243Y001895D01*
X021279Y001869D01*
X021312Y001840D01*
X021343Y001808D01*
X021370Y001773D01*
X021394Y001736D01*
X021415Y001697D01*
X021433Y001657D01*
X021446Y001615D01*
X021456Y001572D01*
X021462Y001528D01*
X021464Y001484D01*
X021462Y001440D01*
X021456Y001396D01*
X021446Y001353D01*
X021433Y001311D01*
X021415Y001271D01*
X021394Y001232D01*
X021370Y001195D01*
X021343Y001160D01*
X021312Y001128D01*
X021279Y001099D01*
X021243Y001073D01*
X021205Y001051D01*
X021165Y001032D01*
X021124Y001016D01*
X021081Y001004D01*
X021038Y000996D01*
X020994Y000992D01*
X020950Y000992D01*
X020906Y000996D01*
X020863Y001004D01*
X020820Y001016D01*
X020779Y001032D01*
X020739Y001051D01*
X020701Y001073D01*
X020665Y001099D01*
X020632Y001128D01*
X020601Y001160D01*
X020574Y001195D01*
X020550Y001232D01*
X020529Y001271D01*
X020511Y001311D01*
X020498Y001353D01*
X020488Y001396D01*
X020482Y001440D01*
X020480Y001484D01*
X018610Y001484D02*
X018612Y001532D01*
X018618Y001580D01*
X018628Y001627D01*
X018641Y001673D01*
X018659Y001718D01*
X018679Y001762D01*
X018704Y001804D01*
X018732Y001843D01*
X018762Y001880D01*
X018796Y001914D01*
X018833Y001946D01*
X018871Y001975D01*
X018912Y002000D01*
X018955Y002022D01*
X019000Y002040D01*
X019046Y002054D01*
X019093Y002065D01*
X019141Y002072D01*
X019189Y002075D01*
X019237Y002074D01*
X019285Y002069D01*
X019333Y002060D01*
X019379Y002048D01*
X019424Y002031D01*
X019468Y002011D01*
X019510Y001988D01*
X019550Y001961D01*
X019588Y001931D01*
X019623Y001898D01*
X019655Y001862D01*
X019685Y001824D01*
X019711Y001783D01*
X019733Y001740D01*
X019753Y001696D01*
X019768Y001651D01*
X019780Y001604D01*
X019788Y001556D01*
X019792Y001508D01*
X019792Y001460D01*
X019788Y001412D01*
X019780Y001364D01*
X019768Y001317D01*
X019753Y001272D01*
X019733Y001228D01*
X019711Y001185D01*
X019685Y001144D01*
X019655Y001106D01*
X019623Y001070D01*
X019588Y001037D01*
X019550Y001007D01*
X019510Y000980D01*
X019468Y000957D01*
X019424Y000937D01*
X019379Y000920D01*
X019333Y000908D01*
X019285Y000899D01*
X019237Y000894D01*
X019189Y000893D01*
X019141Y000896D01*
X019093Y000903D01*
X019046Y000914D01*
X019000Y000928D01*
X018955Y000946D01*
X018912Y000968D01*
X018871Y000993D01*
X018833Y001022D01*
X018796Y001054D01*
X018762Y001088D01*
X018732Y001125D01*
X018704Y001164D01*
X018679Y001206D01*
X018659Y001250D01*
X018641Y001295D01*
X018628Y001341D01*
X018618Y001388D01*
X018612Y001436D01*
X018610Y001484D01*
D11*
X021945Y003820D02*
X022099Y003820D01*
X022022Y003820D02*
X022022Y004280D01*
X022099Y004280D02*
X021945Y004280D01*
X022252Y004204D02*
X022329Y004280D01*
X022482Y004280D01*
X022559Y004204D01*
X022559Y004127D01*
X022482Y004050D01*
X022329Y004050D01*
X022252Y003973D01*
X022252Y003897D01*
X022329Y003820D01*
X022482Y003820D01*
X022559Y003897D01*
X022713Y003897D02*
X022713Y004204D01*
X022789Y004280D01*
X022943Y004280D01*
X023020Y004204D01*
X023020Y003897D01*
X022943Y003820D01*
X022789Y003820D01*
X022713Y003897D01*
X023173Y003820D02*
X023173Y004280D01*
X023327Y004127D01*
X023480Y004280D01*
X023480Y003820D01*
X023103Y004820D02*
X022950Y004820D01*
X022873Y004897D01*
X022873Y005050D01*
X023027Y005050D01*
X023180Y004897D02*
X023103Y004820D01*
X023180Y004897D02*
X023180Y005204D01*
X023103Y005280D01*
X022950Y005280D01*
X022873Y005204D01*
X022720Y005280D02*
X022413Y004820D01*
X022413Y005280D01*
X022259Y005280D02*
X022029Y005280D01*
X021952Y005204D01*
X021952Y004897D01*
X022029Y004820D01*
X022259Y004820D01*
X022259Y005280D01*
X022720Y005280D02*
X022720Y004820D01*
X022643Y005820D02*
X022489Y005820D01*
X022413Y005897D01*
X022259Y005897D02*
X022182Y005820D01*
X022029Y005820D01*
X021952Y005897D01*
X021952Y006204D02*
X022029Y006280D01*
X022182Y006280D01*
X022259Y006204D01*
X022259Y005897D01*
X022413Y006204D02*
X022489Y006280D01*
X022643Y006280D01*
X022720Y006204D01*
X022720Y005897D01*
X022643Y005820D01*
X022873Y005973D02*
X022873Y006280D01*
X022873Y005973D02*
X023027Y005820D01*
X023180Y005973D01*
X023180Y006280D01*
X023127Y007020D02*
X022973Y007173D01*
X022973Y007480D01*
X022820Y007404D02*
X022820Y007097D01*
X022743Y007020D01*
X022589Y007020D01*
X022513Y007097D01*
X022359Y007097D02*
X022282Y007020D01*
X022129Y007020D01*
X022052Y007097D01*
X022359Y007097D02*
X022359Y007404D01*
X022282Y007480D01*
X022129Y007480D01*
X022052Y007404D01*
X022513Y007404D02*
X022589Y007480D01*
X022743Y007480D01*
X022820Y007404D01*
X023280Y007480D02*
X023280Y007173D01*
X023127Y007020D01*
X023203Y008120D02*
X023050Y008120D01*
X022973Y008197D01*
X022973Y008350D01*
X023127Y008350D01*
X023280Y008197D02*
X023280Y008504D01*
X023203Y008580D01*
X023050Y008580D01*
X022973Y008504D01*
X022820Y008580D02*
X022513Y008120D01*
X022513Y008580D01*
X022359Y008580D02*
X022129Y008580D01*
X022052Y008504D01*
X022052Y008197D01*
X022129Y008120D01*
X022359Y008120D01*
X022359Y008580D01*
X022820Y008580D02*
X022820Y008120D01*
X023203Y008120D02*
X023280Y008197D01*
D12*
X002469Y002862D02*
X002469Y000500D01*
X035933Y000500D01*
X035933Y002469D01*
X037114Y002469D01*
X037114Y016248D01*
X035933Y016248D01*
X035933Y018217D01*
X020185Y018217D01*
X020185Y020185D01*
X002469Y020185D01*
X002469Y017823D01*
X000500Y017823D01*
X000500Y002862D01*
X002469Y002862D01*
X020400Y003850D02*
X020400Y004350D01*
X020650Y004600D01*
X020400Y004850D01*
X020400Y005350D01*
X020650Y005600D01*
X020400Y005850D01*
X020400Y006350D01*
X020650Y006600D01*
X021150Y006600D01*
X021400Y006350D01*
X021400Y005850D01*
X021150Y005600D01*
X021400Y005350D01*
X021400Y004850D01*
X021150Y004600D01*
X021400Y004350D01*
X021400Y003850D01*
X021150Y003600D01*
X020650Y003600D01*
X020400Y003850D01*
X022625Y002900D02*
X034625Y002900D01*
X034625Y001900D01*
X022625Y001900D01*
X022625Y002900D01*
X023650Y006600D02*
X023400Y006850D01*
X023400Y007350D01*
X023650Y007600D01*
X024150Y007600D01*
X024400Y007350D01*
X024650Y007600D01*
X025150Y007600D01*
X025400Y007350D01*
X025650Y007600D01*
X026150Y007600D01*
X026400Y007350D01*
X026650Y007600D01*
X027150Y007600D01*
X027400Y007350D01*
X027650Y007600D01*
X028150Y007600D01*
X028400Y007350D01*
X028650Y007600D01*
X029150Y007600D01*
X029400Y007350D01*
X029400Y006850D01*
X029150Y006600D01*
X028650Y006600D01*
X028400Y006850D01*
X028150Y006600D01*
X027650Y006600D01*
X027400Y006850D01*
X027150Y006600D01*
X026650Y006600D01*
X026400Y006850D01*
X026150Y006600D01*
X025650Y006600D01*
X025400Y006850D01*
X025150Y006600D01*
X024650Y006600D01*
X024400Y006850D01*
X024150Y006600D01*
X023650Y006600D01*
X021400Y007150D02*
X021400Y007650D01*
X021150Y007900D01*
X021400Y008150D01*
X021400Y008650D01*
X021150Y008900D01*
X020650Y008900D01*
X020400Y009150D01*
X020400Y009650D01*
X020650Y009900D01*
X020400Y010150D01*
X020400Y010650D01*
X020650Y010900D01*
X021150Y010900D01*
X021400Y010650D01*
X021400Y010150D01*
X021150Y009900D01*
X021400Y009650D01*
X021400Y009150D01*
X021150Y008900D01*
X020650Y008900D01*
X020400Y008650D01*
X020400Y008150D01*
X020650Y007900D01*
X020400Y007650D01*
X020400Y007150D01*
X020650Y006900D01*
X021150Y006900D01*
X021400Y007150D01*
X022625Y008900D02*
X034625Y008900D01*
X034625Y009900D01*
X022625Y009900D01*
X022625Y008900D01*
X023428Y008760D02*
X024372Y008760D01*
X024372Y011240D01*
X023428Y011240D01*
X023428Y008760D01*
X024428Y008760D02*
X025372Y008760D01*
X025372Y011240D01*
X024428Y011240D01*
X024428Y008760D01*
X025428Y008760D02*
X026372Y008760D01*
X026372Y011240D01*
X025428Y011240D01*
X025428Y008760D01*
X026428Y008760D02*
X027372Y008760D01*
X027372Y011240D01*
X026428Y011240D01*
X026428Y008760D01*
X027428Y008760D02*
X028372Y008760D01*
X028372Y011240D01*
X027428Y011240D01*
X027428Y008760D01*
X028428Y008760D02*
X029372Y008760D01*
X029372Y011240D01*
X028428Y011240D01*
X028428Y008760D01*
X032860Y008672D02*
X032860Y007728D01*
X035340Y007728D01*
X035340Y008672D01*
X032860Y008672D01*
X032860Y007472D02*
X035340Y007472D01*
X035340Y006528D01*
X032860Y006528D01*
X032860Y007472D01*
X021400Y011150D02*
X021400Y011650D01*
X021150Y011900D01*
X021400Y012150D01*
X021400Y012650D01*
X021150Y012900D01*
X021400Y013150D01*
X021400Y013650D01*
X021150Y013900D01*
X021400Y014150D01*
X021400Y014650D01*
X021150Y014900D01*
X021400Y015150D01*
X021400Y015650D01*
X021150Y015900D01*
X021400Y016150D01*
X021400Y016650D01*
X021150Y016900D01*
X020650Y016900D01*
X020400Y016650D01*
X020400Y016150D01*
X020650Y015900D01*
X020400Y015650D01*
X020400Y015150D01*
X020650Y014900D01*
X020400Y014650D01*
X020400Y014150D01*
X020650Y013900D01*
X020400Y013650D01*
X020400Y013150D01*
X020650Y012900D01*
X020400Y012650D01*
X020400Y012150D01*
X020650Y011900D01*
X020400Y011650D01*
X020400Y011150D01*
X020650Y010900D01*
X021150Y010900D01*
X021400Y011150D01*
X023550Y016800D02*
X023300Y017050D01*
X023300Y017550D01*
X023550Y017800D01*
X024050Y017800D01*
X024300Y017550D01*
X024550Y017800D01*
X025050Y017800D01*
X025300Y017550D01*
X025300Y017050D01*
X025050Y016800D01*
X024550Y016800D01*
X024300Y017050D01*
X024050Y016800D01*
X023550Y016800D01*
D13*
X018734Y012676D02*
X018509Y012676D01*
X018434Y012601D01*
X018434Y012526D01*
X018509Y012451D01*
X018734Y012451D01*
X018509Y012451D02*
X018434Y012376D01*
X018434Y012300D01*
X018509Y012225D01*
X018734Y012225D01*
X018734Y012676D01*
X018274Y012676D02*
X017974Y012676D01*
X018124Y012676D02*
X018124Y012225D01*
X017814Y012225D02*
X017814Y012676D01*
X017513Y012225D01*
X017513Y012676D01*
X017353Y012451D02*
X017053Y012451D01*
X017128Y012676D02*
X017128Y012225D01*
X017353Y012451D02*
X017128Y012676D01*
X017104Y011692D02*
X017029Y011616D01*
X017029Y011541D01*
X017104Y011466D01*
X017029Y011391D01*
X017029Y011316D01*
X017104Y011241D01*
X017255Y011241D01*
X017330Y011316D01*
X017490Y011241D02*
X017490Y011692D01*
X017330Y011616D02*
X017255Y011692D01*
X017104Y011692D01*
X017104Y011466D02*
X017180Y011466D01*
X017490Y011241D02*
X017790Y011692D01*
X017790Y011241D01*
X018100Y011241D02*
X018100Y011692D01*
X018250Y011692D02*
X017950Y011692D01*
X018411Y011616D02*
X018411Y011541D01*
X018486Y011466D01*
X018711Y011466D01*
X018711Y011241D02*
X018486Y011241D01*
X018411Y011316D01*
X018411Y011391D01*
X018486Y011466D01*
X018411Y011616D02*
X018486Y011692D01*
X018711Y011692D01*
X018711Y011241D01*
X018779Y010642D02*
X018554Y010642D01*
X018479Y010567D01*
X018479Y010492D01*
X018554Y010417D01*
X018779Y010417D01*
X018554Y010417D02*
X018479Y010342D01*
X018479Y010267D01*
X018554Y010192D01*
X018779Y010192D01*
X018779Y010642D01*
X018319Y010642D02*
X018019Y010642D01*
X018169Y010642D02*
X018169Y010192D01*
X017859Y010192D02*
X017859Y010642D01*
X017558Y010192D01*
X017558Y010642D01*
X017398Y010567D02*
X017323Y010642D01*
X017173Y010642D01*
X017098Y010567D01*
X017098Y010492D01*
X017398Y010192D01*
X017098Y010192D01*
X017250Y009707D02*
X017250Y009257D01*
X017100Y009257D02*
X017401Y009257D01*
X017561Y009257D02*
X017561Y009707D01*
X017401Y009557D02*
X017250Y009707D01*
X017561Y009257D02*
X017861Y009707D01*
X017861Y009257D01*
X018171Y009257D02*
X018171Y009707D01*
X018321Y009707D02*
X018021Y009707D01*
X018481Y009632D02*
X018481Y009557D01*
X018557Y009482D01*
X018782Y009482D01*
X018782Y009257D02*
X018557Y009257D01*
X018481Y009332D01*
X018481Y009407D01*
X018557Y009482D01*
X018481Y009632D02*
X018557Y009707D01*
X018782Y009707D01*
X018782Y009257D01*
X018681Y008740D02*
X018531Y008740D01*
X018456Y008665D01*
X018531Y008515D02*
X018456Y008440D01*
X018456Y008365D01*
X018531Y008290D01*
X018681Y008290D01*
X018756Y008365D01*
X018681Y008515D02*
X018531Y008515D01*
X018681Y008515D02*
X018756Y008590D01*
X018756Y008665D01*
X018681Y008740D01*
X018296Y008740D02*
X018296Y008290D01*
X018146Y008440D01*
X017996Y008290D01*
X017996Y008740D01*
X017836Y008740D02*
X017686Y008740D01*
X017761Y008740D02*
X017761Y008290D01*
X017836Y008290D02*
X017686Y008290D01*
X017379Y008290D02*
X017379Y008740D01*
X017529Y008740D02*
X017229Y008740D01*
X017068Y008665D02*
X017068Y008365D01*
X016993Y008290D01*
X016843Y008290D01*
X016768Y008365D01*
X016608Y008290D02*
X016608Y008740D01*
X016768Y008665D02*
X016843Y008740D01*
X016993Y008740D01*
X017068Y008665D01*
X016608Y008515D02*
X016308Y008515D01*
X016308Y008740D02*
X016308Y008290D01*
X017511Y006425D02*
X017436Y006350D01*
X017511Y006425D02*
X017661Y006425D01*
X017736Y006350D01*
X017736Y006049D01*
X017661Y005974D01*
X017511Y005974D01*
X017436Y006049D01*
X017897Y006049D02*
X017972Y005974D01*
X018122Y005974D01*
X018197Y006049D01*
X018197Y006350D01*
X018122Y006425D01*
X017972Y006425D01*
X017897Y006350D01*
X018357Y006425D02*
X018357Y006124D01*
X018507Y005974D01*
X018657Y006124D01*
X018657Y006425D01*
X018657Y005361D02*
X018507Y005361D01*
X018432Y005286D01*
X018432Y005136D02*
X018582Y005136D01*
X018432Y005136D02*
X018432Y004985D01*
X018507Y004910D01*
X018657Y004910D01*
X018732Y004985D01*
X018732Y005286D01*
X018657Y005361D01*
X018272Y005361D02*
X017971Y004910D01*
X017971Y005361D01*
X017811Y005361D02*
X017586Y005361D01*
X017511Y005286D01*
X017511Y004985D01*
X017586Y004910D01*
X017811Y004910D01*
X017811Y005361D01*
X018272Y005361D02*
X018272Y004910D01*
X018187Y004403D02*
X018262Y004328D01*
X018262Y004028D01*
X018187Y003953D01*
X018037Y003953D01*
X017962Y004028D01*
X017962Y004328D01*
X018037Y004403D01*
X018187Y004403D01*
X018422Y004403D02*
X018573Y004253D01*
X018723Y004403D01*
X018723Y003953D01*
X018422Y003953D02*
X018422Y004403D01*
X017802Y004328D02*
X017802Y004253D01*
X017727Y004178D01*
X017577Y004178D01*
X017502Y004103D01*
X017502Y004028D01*
X017577Y003953D01*
X017727Y003953D01*
X017802Y004028D01*
X017341Y003953D02*
X017191Y003953D01*
X017266Y003953D02*
X017266Y004403D01*
X017341Y004403D02*
X017191Y004403D01*
X017502Y004328D02*
X017577Y004403D01*
X017727Y004403D01*
X017802Y004328D01*
X017726Y003410D02*
X017426Y003410D01*
X017576Y003410D02*
X017576Y002959D01*
X017886Y003034D02*
X017886Y003410D01*
X018187Y003410D02*
X018187Y003034D01*
X018112Y002959D01*
X017961Y002959D01*
X017886Y003034D01*
X018347Y003034D02*
X018347Y003335D01*
X018422Y003410D01*
X018572Y003410D01*
X018647Y003335D01*
X018647Y003034D01*
X018572Y002959D01*
X018422Y002959D01*
X018347Y003034D01*
X034870Y003116D02*
X035170Y003116D01*
X035321Y002966D01*
X035170Y002816D01*
X034870Y002816D01*
X035095Y002816D02*
X035095Y003116D01*
X035020Y003276D02*
X035020Y003501D01*
X035095Y003576D01*
X035246Y003576D01*
X035321Y003501D01*
X035321Y003276D01*
X034870Y003276D01*
X035020Y003426D02*
X034870Y003576D01*
X034870Y003737D02*
X035321Y003737D01*
X035095Y003812D02*
X034870Y004037D01*
X035020Y003737D02*
X035321Y004037D01*
X035246Y002656D02*
X035095Y002656D01*
X035020Y002581D01*
X035020Y002355D01*
X034870Y002355D02*
X035321Y002355D01*
X035321Y002581D01*
X035246Y002656D01*
X035246Y002195D02*
X035321Y002120D01*
X035321Y001970D01*
X035246Y001895D01*
X035170Y001895D01*
X035095Y001970D01*
X035095Y002120D01*
X035020Y002195D01*
X034945Y002195D01*
X034870Y002120D01*
X034870Y001970D01*
X034945Y001895D01*
D14*
X036000Y013500D02*
X022000Y013500D01*
X022000Y014000D01*
X022044Y014002D01*
X022087Y014008D01*
X022129Y014017D01*
X022171Y014030D01*
X022211Y014047D01*
X022250Y014067D01*
X022287Y014090D01*
X022321Y014117D01*
X022354Y014146D01*
X022383Y014179D01*
X022410Y014213D01*
X022433Y014250D01*
X022453Y014289D01*
X022470Y014329D01*
X022483Y014371D01*
X022492Y014413D01*
X022498Y014456D01*
X022500Y014500D01*
X022498Y014544D01*
X022492Y014587D01*
X022483Y014629D01*
X022470Y014671D01*
X022453Y014711D01*
X022433Y014750D01*
X022410Y014787D01*
X022383Y014821D01*
X022354Y014854D01*
X022321Y014883D01*
X022287Y014910D01*
X022250Y014933D01*
X022211Y014953D01*
X022171Y014970D01*
X022129Y014983D01*
X022087Y014992D01*
X022044Y014998D01*
X022000Y015000D01*
X022000Y015500D01*
X022050Y015500D02*
X036000Y015500D01*
X036000Y013500D01*
D15*
X035625Y009900D02*
X034625Y009900D01*
X035625Y009900D02*
X035625Y007400D01*
X034625Y007400D01*
X034625Y004400D01*
X035625Y004400D01*
X035625Y001900D01*
X034625Y001900D01*
X035625Y004400D02*
X036125Y004400D01*
X036125Y007400D01*
X035625Y007400D01*
X022625Y009900D02*
X021625Y008900D01*
X021625Y002900D01*
X022625Y001900D01*
M02*
